<svg width="479" height="164" viewBox="0 0 479 164" fill="none" xmlns="http://www.w3.org/2000/svg">
<g filter="url(#filter0_d_122_970)">
<path d="M21.0966 93V23.1818H49.9375C55.1648 23.1818 59.6761 24.2045 63.4716 26.25C67.2898 28.2727 70.233 31.1023 72.3011 34.7386C74.3693 38.3523 75.4034 42.5568 75.4034 47.3523C75.4034 52.1705 74.3466 56.3864 72.233 60C70.142 63.5909 67.1534 66.375 63.267 68.3523C59.3807 70.3295 54.767 71.3182 49.4261 71.3182H31.6307V58.0227H46.2898C48.8352 58.0227 50.9602 57.5795 52.6648 56.6932C54.392 55.8068 55.6989 54.5682 56.5852 52.9773C57.4716 51.3636 57.9148 49.4886 57.9148 47.3523C57.9148 45.1932 57.4716 43.3295 56.5852 41.7614C55.6989 40.1705 54.392 38.9432 52.6648 38.0795C50.9375 37.2159 48.8125 36.7841 46.2898 36.7841H37.9716V93H21.0966ZM83.7216 93V23.1818H100.597V79.2955H129.642V93H83.7216ZM154.418 93H136.281L159.838 23.1818H182.304L205.861 93H187.724L171.327 40.7727H170.781L154.418 93ZM151.997 65.5227H189.906V78.3409H151.997V65.5227Z" fill="#8000FF"/>
<path d="M248.96 44.1136C248.733 41.6136 247.722 39.6705 245.926 38.2841C244.153 36.875 241.619 36.1705 238.324 36.1705C236.142 36.1705 234.324 36.4545 232.869 37.0227C231.415 37.5909 230.324 38.375 229.597 39.375C228.869 40.3523 228.494 41.4773 228.472 42.75C228.426 43.7955 228.631 44.7159 229.085 45.5114C229.563 46.3068 230.244 47.0114 231.131 47.625C232.04 48.2159 233.131 48.7386 234.403 49.1932C235.676 49.6477 237.108 50.0455 238.699 50.3864L244.699 51.75C248.153 52.5 251.199 53.5 253.835 54.75C256.494 56 258.722 57.4886 260.517 59.2159C262.335 60.9432 263.71 62.9318 264.642 65.1818C265.574 67.4318 266.051 69.9545 266.074 72.75C266.051 77.1591 264.938 80.9432 262.733 84.1023C260.528 87.2614 257.358 89.6818 253.222 91.3636C249.108 93.0455 244.142 93.8864 238.324 93.8864C232.483 93.8864 227.392 93.0114 223.051 91.2614C218.71 89.5114 215.335 86.8523 212.926 83.2841C210.517 79.7159 209.278 75.2045 209.21 69.75H225.369C225.506 72 226.108 73.875 227.176 75.375C228.244 76.875 229.71 78.0114 231.574 78.7841C233.46 79.5568 235.642 79.9432 238.119 79.9432C240.392 79.9432 242.324 79.6364 243.915 79.0227C245.528 78.4091 246.767 77.5568 247.631 76.4659C248.494 75.375 248.938 74.125 248.96 72.7159C248.938 71.3977 248.528 70.2727 247.733 69.3409C246.938 68.3864 245.71 67.5682 244.051 66.8864C242.415 66.1818 240.324 65.5341 237.778 64.9432L230.483 63.2386C224.438 61.8523 219.676 59.6136 216.199 56.5227C212.722 53.4091 210.994 49.2045 211.017 43.9091C210.994 39.5909 212.153 35.8068 214.494 32.5568C216.835 29.3068 220.074 26.7727 224.21 24.9545C228.347 23.1364 233.063 22.2273 238.358 22.2273C243.767 22.2273 248.46 23.1477 252.438 24.9886C256.438 26.8068 259.54 29.3636 261.744 32.6591C263.949 35.9545 265.074 39.7727 265.119 44.1136H248.96ZM272.312 36.8864V23.1818H331.324V36.8864H310.153V93H293.517V36.8864H272.312ZM345.949 93H327.812L351.369 23.1818H373.835L397.392 93H379.256L362.858 40.7727H362.312L345.949 93ZM343.528 65.5227H381.438V78.3409H343.528V65.5227ZM404.909 93V23.1818H433.75C438.977 23.1818 443.489 24.125 447.284 26.0114C451.102 27.875 454.045 30.5568 456.114 34.0568C458.182 37.5341 459.216 41.6591 459.216 46.4318C459.216 51.2727 458.159 55.3864 456.045 58.7727C453.932 62.1364 450.932 64.7045 447.045 66.4773C443.159 68.2273 438.557 69.1023 433.239 69.1023H415V55.8068H430.102C432.648 55.8068 434.773 55.4773 436.477 54.8182C438.205 54.1364 439.511 53.1136 440.398 51.75C441.284 50.3636 441.727 48.5909 441.727 46.4318C441.727 44.2727 441.284 42.4886 440.398 41.0795C439.511 39.6477 438.205 38.5795 436.477 37.875C434.75 37.1477 432.625 36.7841 430.102 36.7841H421.784V93H404.909ZM444.216 61.0909L461.602 93H443.193L426.148 61.0909H444.216Z" fill="#FF9900"/>
</g>
<path d="M75.6641 122.648V120.364H85.4993V122.648H81.9709V132H79.1982V122.648H75.6641ZM89.6513 127.023V132H86.8729V120.364H89.5604V124.875H89.657C89.8539 124.337 90.1759 123.917 90.6229 123.614C91.0736 123.311 91.6248 123.159 92.2763 123.159C92.8899 123.159 93.424 123.295 93.8786 123.568C94.3331 123.837 94.6854 124.218 94.9354 124.71C95.1892 125.203 95.3142 125.778 95.3104 126.438V132H92.532V126.983C92.5357 126.498 92.4145 126.119 92.1683 125.847C91.9221 125.574 91.5755 125.438 91.1286 125.438C90.8369 125.438 90.5793 125.502 90.3558 125.631C90.1361 125.756 89.9638 125.936 89.8388 126.17C89.7176 126.405 89.6551 126.689 89.6513 127.023ZM101.124 132.165C100.211 132.165 99.4235 131.985 98.7607 131.625C98.1016 131.261 97.594 130.744 97.2379 130.074C96.8857 129.4 96.7095 128.598 96.7095 127.67C96.7095 126.769 96.8875 125.981 97.2436 125.307C97.5997 124.629 98.1016 124.102 98.7493 123.727C99.397 123.348 100.16 123.159 101.039 123.159C101.66 123.159 102.228 123.256 102.744 123.449C103.259 123.642 103.704 123.928 104.079 124.307C104.454 124.686 104.746 125.153 104.954 125.71C105.162 126.263 105.266 126.898 105.266 127.614V128.307H97.6811V126.693H102.681C102.677 126.398 102.607 126.134 102.471 125.903C102.335 125.672 102.147 125.492 101.908 125.364C101.674 125.231 101.403 125.165 101.096 125.165C100.785 125.165 100.507 125.235 100.261 125.375C100.014 125.511 99.8194 125.699 99.6754 125.938C99.5315 126.172 99.4557 126.439 99.4482 126.739V128.381C99.4482 128.737 99.5182 129.049 99.6584 129.318C99.7985 129.583 99.9974 129.79 100.255 129.938C100.513 130.085 100.819 130.159 101.175 130.159C101.422 130.159 101.645 130.125 101.846 130.057C102.047 129.989 102.219 129.888 102.363 129.756C102.507 129.623 102.615 129.46 102.687 129.267L105.238 129.341C105.132 129.913 104.899 130.411 104.539 130.835C104.183 131.256 103.715 131.583 103.136 131.818C102.556 132.049 101.886 132.165 101.124 132.165ZM110.123 132V120.364H114.975C115.846 120.364 116.576 120.487 117.163 120.733C117.754 120.979 118.197 121.324 118.492 121.767C118.791 122.21 118.941 122.723 118.941 123.307C118.941 123.75 118.848 124.146 118.663 124.494C118.477 124.839 118.221 125.125 117.896 125.352C117.57 125.58 117.193 125.739 116.765 125.83V125.943C117.235 125.966 117.668 126.093 118.066 126.324C118.468 126.555 118.79 126.877 119.032 127.29C119.274 127.699 119.396 128.184 119.396 128.744C119.396 129.369 119.237 129.928 118.918 130.42C118.6 130.909 118.14 131.295 117.538 131.58C116.935 131.86 116.204 132 115.344 132H110.123ZM112.935 129.733H114.674C115.284 129.733 115.733 129.617 116.021 129.386C116.312 129.155 116.458 128.833 116.458 128.42C116.458 128.121 116.388 127.864 116.248 127.648C116.108 127.428 115.909 127.259 115.651 127.142C115.394 127.021 115.085 126.96 114.725 126.96H112.935V129.733ZM112.935 125.148H114.492C114.799 125.148 115.072 125.097 115.31 124.994C115.549 124.892 115.735 124.744 115.867 124.551C116.004 124.358 116.072 124.125 116.072 123.852C116.072 123.462 115.933 123.155 115.657 122.932C115.38 122.708 115.007 122.597 114.538 122.597H112.935V125.148ZM123.208 132.148C122.651 132.148 122.157 132.055 121.725 131.869C121.297 131.68 120.958 131.396 120.708 131.017C120.462 130.634 120.339 130.155 120.339 129.58C120.339 129.095 120.424 128.686 120.594 128.352C120.765 128.019 121 127.748 121.299 127.54C121.598 127.331 121.943 127.174 122.333 127.068C122.723 126.958 123.14 126.884 123.583 126.847C124.079 126.801 124.479 126.754 124.782 126.705C125.085 126.652 125.305 126.578 125.441 126.483C125.581 126.384 125.651 126.246 125.651 126.068V126.04C125.651 125.748 125.551 125.523 125.35 125.364C125.149 125.205 124.879 125.125 124.538 125.125C124.17 125.125 123.875 125.205 123.651 125.364C123.428 125.523 123.286 125.742 123.225 126.023L120.663 125.932C120.738 125.402 120.933 124.928 121.248 124.511C121.566 124.091 122.002 123.761 122.555 123.523C123.112 123.28 123.78 123.159 124.56 123.159C125.117 123.159 125.63 123.225 126.1 123.358C126.57 123.487 126.979 123.676 127.327 123.926C127.676 124.172 127.945 124.475 128.134 124.835C128.327 125.195 128.424 125.606 128.424 126.068V132H125.81V130.784H125.742C125.587 131.08 125.388 131.33 125.146 131.534C124.907 131.739 124.625 131.892 124.299 131.994C123.977 132.097 123.613 132.148 123.208 132.148ZM124.066 130.33C124.365 130.33 124.634 130.269 124.873 130.148C125.115 130.027 125.308 129.86 125.452 129.648C125.596 129.432 125.668 129.182 125.668 128.898V128.068C125.589 128.11 125.492 128.148 125.379 128.182C125.269 128.216 125.147 128.248 125.015 128.278C124.882 128.309 124.746 128.335 124.606 128.358C124.466 128.381 124.331 128.402 124.202 128.42C123.941 128.462 123.718 128.527 123.532 128.614C123.35 128.701 123.21 128.814 123.112 128.955C123.017 129.091 122.969 129.254 122.969 129.443C122.969 129.731 123.072 129.951 123.276 130.102C123.485 130.254 123.748 130.33 124.066 130.33ZM130.123 132V123.273H132.822V124.864H132.913C133.072 124.288 133.331 123.86 133.691 123.58C134.051 123.295 134.469 123.153 134.947 123.153C135.076 123.153 135.208 123.163 135.344 123.182C135.481 123.197 135.608 123.222 135.725 123.256V125.67C135.593 125.625 135.418 125.589 135.202 125.562C134.99 125.536 134.801 125.523 134.634 125.523C134.305 125.523 134.007 125.597 133.742 125.744C133.481 125.888 133.274 126.091 133.123 126.352C132.975 126.61 132.901 126.913 132.901 127.261V132H130.123ZM138.989 132.148C138.433 132.148 137.938 132.055 137.506 131.869C137.078 131.68 136.739 131.396 136.489 131.017C136.243 130.634 136.12 130.155 136.12 129.58C136.12 129.095 136.205 128.686 136.376 128.352C136.546 128.019 136.781 127.748 137.08 127.54C137.379 127.331 137.724 127.174 138.114 127.068C138.504 126.958 138.921 126.884 139.364 126.847C139.861 126.801 140.26 126.754 140.563 126.705C140.866 126.652 141.086 126.578 141.222 126.483C141.362 126.384 141.433 126.246 141.433 126.068V126.04C141.433 125.748 141.332 125.523 141.131 125.364C140.931 125.205 140.66 125.125 140.319 125.125C139.951 125.125 139.656 125.205 139.433 125.364C139.209 125.523 139.067 125.742 139.006 126.023L136.444 125.932C136.52 125.402 136.715 124.928 137.029 124.511C137.347 124.091 137.783 123.761 138.336 123.523C138.893 123.28 139.561 123.159 140.342 123.159C140.898 123.159 141.412 123.225 141.881 123.358C142.351 123.487 142.76 123.676 143.109 123.926C143.457 124.172 143.726 124.475 143.915 124.835C144.109 125.195 144.205 125.606 144.205 126.068V132H141.592V130.784H141.523C141.368 131.08 141.169 131.33 140.927 131.534C140.688 131.739 140.406 131.892 140.08 131.994C139.758 132.097 139.395 132.148 138.989 132.148ZM139.847 130.33C140.147 130.33 140.415 130.269 140.654 130.148C140.897 130.027 141.09 129.86 141.234 129.648C141.378 129.432 141.45 129.182 141.45 128.898V128.068C141.37 128.11 141.273 128.148 141.16 128.182C141.05 128.216 140.929 128.248 140.796 128.278C140.664 128.309 140.527 128.335 140.387 128.358C140.247 128.381 140.112 128.402 139.984 128.42C139.722 128.462 139.499 128.527 139.313 128.614C139.131 128.701 138.991 128.814 138.893 128.955C138.798 129.091 138.751 129.254 138.751 129.443C138.751 129.731 138.853 129.951 139.058 130.102C139.266 130.254 139.529 130.33 139.847 130.33ZM148.683 127.023V132H145.904V123.273H148.546V124.875H148.643C148.836 124.341 149.165 123.922 149.631 123.619C150.097 123.312 150.652 123.159 151.296 123.159C151.91 123.159 152.442 123.297 152.893 123.574C153.347 123.847 153.7 124.229 153.95 124.722C154.203 125.21 154.328 125.782 154.325 126.438V132H151.546V126.983C151.55 126.498 151.427 126.119 151.177 125.847C150.931 125.574 150.588 125.438 150.148 125.438C149.857 125.438 149.599 125.502 149.376 125.631C149.156 125.756 148.986 125.936 148.864 126.17C148.747 126.405 148.686 126.689 148.683 127.023ZM160.113 135.455C159.283 135.455 158.573 135.339 157.982 135.108C157.391 134.877 156.927 134.561 156.59 134.159C156.253 133.758 156.05 133.303 155.982 132.795L158.613 132.648C158.662 132.826 158.753 132.981 158.886 133.114C159.022 133.246 159.198 133.348 159.414 133.42C159.634 133.492 159.891 133.528 160.187 133.528C160.653 133.528 161.037 133.415 161.34 133.188C161.647 132.964 161.8 132.572 161.8 132.011V130.477H161.704C161.594 130.746 161.427 130.987 161.204 131.199C160.98 131.411 160.702 131.578 160.369 131.699C160.039 131.82 159.66 131.881 159.232 131.881C158.596 131.881 158.013 131.733 157.482 131.438C156.956 131.138 156.533 130.676 156.215 130.051C155.901 129.422 155.744 128.614 155.744 127.625C155.744 126.606 155.906 125.767 156.232 125.108C156.558 124.445 156.984 123.955 157.511 123.636C158.041 123.318 158.611 123.159 159.221 123.159C159.679 123.159 160.071 123.239 160.397 123.398C160.727 123.553 160.997 123.754 161.21 124C161.422 124.246 161.583 124.502 161.692 124.767H161.772V123.273H164.539V132.034C164.539 132.773 164.353 133.396 163.982 133.903C163.611 134.411 163.092 134.795 162.425 135.057C161.759 135.322 160.988 135.455 160.113 135.455ZM160.198 129.858C160.535 129.858 160.823 129.769 161.062 129.591C161.3 129.413 161.484 129.157 161.613 128.824C161.742 128.491 161.806 128.091 161.806 127.625C161.806 127.152 161.742 126.744 161.613 126.403C161.488 126.059 161.304 125.794 161.062 125.608C160.823 125.422 160.535 125.33 160.198 125.33C159.853 125.33 159.562 125.424 159.323 125.614C159.085 125.803 158.903 126.07 158.778 126.415C158.656 126.756 158.596 127.159 158.596 127.625C158.596 128.091 158.658 128.491 158.783 128.824C158.908 129.157 159.088 129.413 159.323 129.591C159.562 129.769 159.853 129.858 160.198 129.858ZM168.771 132.148C168.214 132.148 167.719 132.055 167.288 131.869C166.86 131.68 166.521 131.396 166.271 131.017C166.024 130.634 165.901 130.155 165.901 129.58C165.901 129.095 165.987 128.686 166.157 128.352C166.327 128.019 166.562 127.748 166.862 127.54C167.161 127.331 167.505 127.174 167.896 127.068C168.286 126.958 168.702 126.884 169.146 126.847C169.642 126.801 170.041 126.754 170.344 126.705C170.647 126.652 170.867 126.578 171.004 126.483C171.144 126.384 171.214 126.246 171.214 126.068V126.04C171.214 125.748 171.113 125.523 170.913 125.364C170.712 125.205 170.441 125.125 170.1 125.125C169.733 125.125 169.437 125.205 169.214 125.364C168.99 125.523 168.848 125.742 168.788 126.023L166.225 125.932C166.301 125.402 166.496 124.928 166.81 124.511C167.129 124.091 167.564 123.761 168.117 123.523C168.674 123.28 169.343 123.159 170.123 123.159C170.68 123.159 171.193 123.225 171.663 123.358C172.132 123.487 172.541 123.676 172.89 123.926C173.238 124.172 173.507 124.475 173.697 124.835C173.89 125.195 173.987 125.606 173.987 126.068V132H171.373V130.784H171.305C171.149 131.08 170.951 131.33 170.708 131.534C170.469 131.739 170.187 131.892 169.862 131.994C169.54 132.097 169.176 132.148 168.771 132.148ZM169.629 130.33C169.928 130.33 170.197 130.269 170.435 130.148C170.678 130.027 170.871 129.86 171.015 129.648C171.159 129.432 171.231 129.182 171.231 128.898V128.068C171.151 128.11 171.055 128.148 170.941 128.182C170.831 128.216 170.71 128.248 170.577 128.278C170.445 128.309 170.308 128.335 170.168 128.358C170.028 128.381 169.894 128.402 169.765 128.42C169.504 128.462 169.28 128.527 169.094 128.614C168.913 128.701 168.772 128.814 168.674 128.955C168.579 129.091 168.532 129.254 168.532 129.443C168.532 129.731 168.634 129.951 168.839 130.102C169.047 130.254 169.31 130.33 169.629 130.33ZM177.072 135.273C176.738 135.273 176.424 135.246 176.129 135.193C175.833 135.144 175.579 135.078 175.367 134.994L175.981 132.977C176.254 133.068 176.5 133.121 176.719 133.136C176.943 133.152 177.134 133.116 177.293 133.028C177.456 132.945 177.581 132.795 177.668 132.58L177.776 132.318L174.674 123.273H177.583L179.191 129.5H179.282L180.913 123.273H183.839L180.549 132.835C180.39 133.313 180.165 133.733 179.873 134.097C179.585 134.464 179.212 134.752 178.754 134.96C178.299 135.169 177.738 135.273 177.072 135.273ZM188.342 132V120.364H191.154V129.716H195.995V132H188.342ZM201.531 132.165C200.618 132.165 199.83 131.985 199.167 131.625C198.508 131.261 198 130.744 197.644 130.074C197.292 129.4 197.116 128.598 197.116 127.67C197.116 126.769 197.294 125.981 197.65 125.307C198.006 124.629 198.508 124.102 199.156 123.727C199.803 123.348 200.567 123.159 201.445 123.159C202.067 123.159 202.635 123.256 203.15 123.449C203.665 123.642 204.11 123.928 204.485 124.307C204.86 124.686 205.152 125.153 205.36 125.71C205.568 126.263 205.673 126.898 205.673 127.614V128.307H198.087V126.693H203.087C203.084 126.398 203.013 126.134 202.877 125.903C202.741 125.672 202.553 125.492 202.315 125.364C202.08 125.231 201.809 125.165 201.502 125.165C201.192 125.165 200.913 125.235 200.667 125.375C200.421 125.511 200.226 125.699 200.082 125.938C199.938 126.172 199.862 126.439 199.854 126.739V128.381C199.854 128.737 199.924 129.049 200.065 129.318C200.205 129.583 200.404 129.79 200.661 129.938C200.919 130.085 201.226 130.159 201.582 130.159C201.828 130.159 202.051 130.125 202.252 130.057C202.453 129.989 202.625 129.888 202.769 129.756C202.913 129.623 203.021 129.46 203.093 129.267L205.644 129.341C205.538 129.913 205.305 130.411 204.945 130.835C204.589 131.256 204.121 131.583 203.542 131.818C202.962 132.049 202.292 132.165 201.531 132.165ZM209.87 127.023V132H207.092V123.273H209.734V124.875H209.83C210.023 124.341 210.353 123.922 210.819 123.619C211.285 123.312 211.84 123.159 212.484 123.159C213.097 123.159 213.629 123.297 214.08 123.574C214.535 123.847 214.887 124.229 215.137 124.722C215.391 125.21 215.516 125.782 215.512 126.438V132H212.734V126.983C212.737 126.498 212.614 126.119 212.364 125.847C212.118 125.574 211.775 125.438 211.336 125.438C211.044 125.438 210.787 125.502 210.563 125.631C210.344 125.756 210.173 125.936 210.052 126.17C209.934 126.405 209.874 126.689 209.87 127.023ZM220.42 132.125C219.776 132.125 219.191 131.958 218.664 131.625C218.138 131.292 217.717 130.792 217.403 130.125C217.088 129.458 216.931 128.631 216.931 127.642C216.931 126.616 217.094 125.771 217.42 125.108C217.746 124.445 218.172 123.955 218.698 123.636C219.228 123.318 219.799 123.159 220.408 123.159C220.867 123.159 221.259 123.239 221.585 123.398C221.91 123.553 222.179 123.754 222.391 124C222.603 124.246 222.764 124.502 222.874 124.767H222.931V120.364H225.71V132H222.96V130.585H222.874C222.757 130.854 222.59 131.106 222.374 131.341C222.158 131.576 221.888 131.765 221.562 131.909C221.24 132.053 220.859 132.125 220.42 132.125ZM221.386 129.96C221.723 129.96 222.011 129.866 222.249 129.676C222.488 129.483 222.672 129.212 222.8 128.864C222.929 128.515 222.994 128.106 222.994 127.636C222.994 127.159 222.929 126.748 222.8 126.403C222.675 126.059 222.492 125.794 222.249 125.608C222.011 125.422 221.723 125.33 221.386 125.33C221.041 125.33 220.749 125.424 220.511 125.614C220.272 125.803 220.09 126.07 219.965 126.415C219.844 126.759 219.783 127.167 219.783 127.636C219.783 128.106 219.846 128.515 219.971 128.864C220.096 129.212 220.276 129.483 220.511 129.676C220.749 129.866 221.041 129.96 221.386 129.96ZM227.467 132V123.273H230.245V132H227.467ZM228.859 122.256C228.469 122.256 228.133 122.127 227.853 121.869C227.573 121.608 227.433 121.294 227.433 120.926C227.433 120.562 227.573 120.252 227.853 119.994C228.133 119.733 228.469 119.602 228.859 119.602C229.253 119.602 229.588 119.733 229.864 119.994C230.145 120.252 230.285 120.562 230.285 120.926C230.285 121.294 230.145 121.608 229.864 121.869C229.588 122.127 229.253 122.256 228.859 122.256ZM234.792 127.023V132H232.013V123.273H234.656V124.875H234.752C234.945 124.341 235.275 123.922 235.741 123.619C236.207 123.312 236.762 123.159 237.406 123.159C238.019 123.159 238.551 123.297 239.002 123.574C239.457 123.847 239.809 124.229 240.059 124.722C240.313 125.21 240.438 125.782 240.434 126.438V132H237.656V126.983C237.659 126.498 237.536 126.119 237.286 125.847C237.04 125.574 236.697 125.438 236.258 125.438C235.966 125.438 235.709 125.502 235.485 125.631C235.265 125.756 235.095 125.936 234.974 126.17C234.856 126.405 234.796 126.689 234.792 127.023ZM246.222 135.455C245.393 135.455 244.683 135.339 244.092 135.108C243.501 134.877 243.037 134.561 242.7 134.159C242.362 133.758 242.16 133.303 242.092 132.795L244.722 132.648C244.772 132.826 244.862 132.981 244.995 133.114C245.131 133.246 245.308 133.348 245.523 133.42C245.743 133.492 246.001 133.528 246.296 133.528C246.762 133.528 247.147 133.415 247.45 133.188C247.756 132.964 247.91 132.572 247.91 132.011V130.477H247.813C247.703 130.746 247.537 130.987 247.313 131.199C247.09 131.411 246.811 131.578 246.478 131.699C246.148 131.82 245.77 131.881 245.342 131.881C244.705 131.881 244.122 131.733 243.592 131.438C243.065 131.138 242.643 130.676 242.325 130.051C242.01 129.422 241.853 128.614 241.853 127.625C241.853 126.606 242.016 125.767 242.342 125.108C242.667 124.445 243.094 123.955 243.62 123.636C244.15 123.318 244.72 123.159 245.33 123.159C245.789 123.159 246.181 123.239 246.506 123.398C246.836 123.553 247.107 123.754 247.319 124C247.531 124.246 247.692 124.502 247.802 124.767H247.881V123.273H250.648V132.034C250.648 132.773 250.463 133.396 250.092 133.903C249.72 134.411 249.201 134.795 248.535 135.057C247.868 135.322 247.097 135.455 246.222 135.455ZM246.308 129.858C246.645 129.858 246.933 129.769 247.171 129.591C247.41 129.413 247.594 129.157 247.722 128.824C247.851 128.491 247.915 128.091 247.915 127.625C247.915 127.152 247.851 126.744 247.722 126.403C247.597 126.059 247.414 125.794 247.171 125.608C246.933 125.422 246.645 125.33 246.308 125.33C245.963 125.33 245.671 125.424 245.433 125.614C245.194 125.803 245.012 126.07 244.887 126.415C244.766 126.756 244.705 127.159 244.705 127.625C244.705 128.091 244.768 128.491 244.893 128.824C245.018 129.157 245.198 129.413 245.433 129.591C245.671 129.769 245.963 129.858 246.308 129.858ZM258.67 120.364V132H255.857V120.364H258.67ZM263.214 127.023V132H260.435V123.273H263.077V124.875H263.174C263.367 124.341 263.697 123.922 264.163 123.619C264.629 123.312 265.183 123.159 265.827 123.159C266.441 123.159 266.973 123.297 267.424 123.574C267.879 123.847 268.231 124.229 268.481 124.722C268.735 125.21 268.86 125.782 268.856 126.438V132H266.077V126.983C266.081 126.498 265.958 126.119 265.708 125.847C265.462 125.574 265.119 125.438 264.68 125.438C264.388 125.438 264.13 125.502 263.907 125.631C263.687 125.756 263.517 125.936 263.396 126.17C263.278 126.405 263.218 126.689 263.214 127.023ZM278.729 123.273L275.735 132H272.553L269.565 123.273H272.491L274.099 129.284H274.19L275.803 123.273H278.729ZM283.593 132.165C282.68 132.165 281.892 131.985 281.229 131.625C280.57 131.261 280.063 130.744 279.707 130.074C279.354 129.4 279.178 128.598 279.178 127.67C279.178 126.769 279.356 125.981 279.712 125.307C280.068 124.629 280.57 124.102 281.218 123.727C281.866 123.348 282.629 123.159 283.508 123.159C284.129 123.159 284.697 123.256 285.212 123.449C285.728 123.642 286.173 123.928 286.548 124.307C286.923 124.686 287.214 125.153 287.423 125.71C287.631 126.263 287.735 126.898 287.735 127.614V128.307H280.15V126.693H285.15C285.146 126.398 285.076 126.134 284.94 125.903C284.803 125.672 284.616 125.492 284.377 125.364C284.142 125.231 283.871 125.165 283.565 125.165C283.254 125.165 282.976 125.235 282.729 125.375C282.483 125.511 282.288 125.699 282.144 125.938C282 126.172 281.924 126.439 281.917 126.739V128.381C281.917 128.737 281.987 129.049 282.127 129.318C282.267 129.583 282.466 129.79 282.724 129.938C282.981 130.085 283.288 130.159 283.644 130.159C283.89 130.159 284.114 130.125 284.315 130.057C284.515 129.989 284.688 129.888 284.832 129.756C284.976 129.623 285.084 129.46 285.156 129.267L287.707 129.341C287.601 129.913 287.368 130.411 287.008 130.835C286.652 131.256 286.184 131.583 285.604 131.818C285.025 132.049 284.354 132.165 283.593 132.165ZM291.933 127.023V132H289.154V123.273H291.796V124.875H291.893C292.086 124.341 292.415 123.922 292.881 123.619C293.347 123.312 293.902 123.159 294.546 123.159C295.16 123.159 295.692 123.297 296.143 123.574C296.597 123.847 296.95 124.229 297.2 124.722C297.453 125.21 297.578 125.782 297.575 126.438V132H294.796V126.983C294.8 126.498 294.677 126.119 294.427 125.847C294.181 125.574 293.838 125.438 293.398 125.438C293.107 125.438 292.849 125.502 292.626 125.631C292.406 125.756 292.236 125.936 292.114 126.17C291.997 126.405 291.936 126.689 291.933 127.023ZM304.221 123.273V125.318H298.715V123.273H304.221ZM299.869 121.182H302.647V129.256C302.647 129.426 302.674 129.564 302.727 129.67C302.783 129.773 302.865 129.847 302.971 129.892C303.077 129.934 303.204 129.955 303.352 129.955C303.458 129.955 303.569 129.945 303.687 129.926C303.808 129.903 303.899 129.884 303.96 129.869L304.38 131.875C304.247 131.913 304.06 131.96 303.817 132.017C303.579 132.074 303.293 132.11 302.96 132.125C302.308 132.155 301.749 132.08 301.283 131.898C300.821 131.712 300.467 131.424 300.221 131.034C299.978 130.644 299.861 130.153 299.869 129.562V121.182ZM309.619 132.165C308.702 132.165 307.914 131.977 307.255 131.602C306.6 131.223 306.094 130.697 305.738 130.023C305.386 129.345 305.21 128.559 305.21 127.665C305.21 126.767 305.386 125.981 305.738 125.307C306.094 124.629 306.6 124.102 307.255 123.727C307.914 123.348 308.702 123.159 309.619 123.159C310.535 123.159 311.321 123.348 311.977 123.727C312.636 124.102 313.141 124.629 313.494 125.307C313.85 125.981 314.028 126.767 314.028 127.665C314.028 128.559 313.85 129.345 313.494 130.023C313.141 130.697 312.636 131.223 311.977 131.602C311.321 131.977 310.535 132.165 309.619 132.165ZM309.636 130.068C309.969 130.068 310.251 129.966 310.482 129.761C310.713 129.557 310.889 129.273 311.011 128.909C311.136 128.545 311.198 128.125 311.198 127.648C311.198 127.163 311.136 126.739 311.011 126.375C310.889 126.011 310.713 125.727 310.482 125.523C310.251 125.318 309.969 125.216 309.636 125.216C309.291 125.216 308.999 125.318 308.761 125.523C308.526 125.727 308.346 126.011 308.221 126.375C308.1 126.739 308.039 127.163 308.039 127.648C308.039 128.125 308.1 128.545 308.221 128.909C308.346 129.273 308.526 129.557 308.761 129.761C308.999 129.966 309.291 130.068 309.636 130.068ZM315.451 132V123.273H318.15V124.864H318.241C318.4 124.288 318.659 123.86 319.019 123.58C319.379 123.295 319.798 123.153 320.275 123.153C320.404 123.153 320.536 123.163 320.673 123.182C320.809 123.197 320.936 123.222 321.053 123.256V125.67C320.921 125.625 320.746 125.589 320.531 125.562C320.318 125.536 320.129 125.523 319.962 125.523C319.633 125.523 319.335 125.597 319.07 125.744C318.809 125.888 318.603 126.091 318.451 126.352C318.303 126.61 318.229 126.913 318.229 127.261V132H315.451ZM324.15 135.273C323.817 135.273 323.502 135.246 323.207 135.193C322.911 135.144 322.657 135.078 322.445 134.994L323.059 132.977C323.332 133.068 323.578 133.121 323.798 133.136C324.021 133.152 324.212 133.116 324.371 133.028C324.534 132.945 324.659 132.795 324.746 132.58L324.854 132.318L321.752 123.273H324.661L326.269 129.5H326.36L327.991 123.273H330.917L327.627 132.835C327.468 133.313 327.243 133.733 326.951 134.097C326.663 134.464 326.29 134.752 325.832 134.96C325.377 135.169 324.817 135.273 324.15 135.273ZM335.42 120.364H338.903L341.857 127.568H341.994L344.948 120.364H348.431V132H345.692V124.852H345.596L342.8 131.926H341.05L338.255 124.812H338.158V132H335.42V120.364ZM352.646 132.148C352.089 132.148 351.594 132.055 351.163 131.869C350.735 131.68 350.396 131.396 350.146 131.017C349.899 130.634 349.776 130.155 349.776 129.58C349.776 129.095 349.862 128.686 350.032 128.352C350.202 128.019 350.437 127.748 350.737 127.54C351.036 127.331 351.38 127.174 351.771 127.068C352.161 126.958 352.577 126.884 353.021 126.847C353.517 126.801 353.916 126.754 354.219 126.705C354.522 126.652 354.742 126.578 354.879 126.483C355.019 126.384 355.089 126.246 355.089 126.068V126.04C355.089 125.748 354.988 125.523 354.788 125.364C354.587 125.205 354.316 125.125 353.975 125.125C353.608 125.125 353.312 125.205 353.089 125.364C352.865 125.523 352.723 125.742 352.663 126.023L350.1 125.932C350.176 125.402 350.371 124.928 350.685 124.511C351.004 124.091 351.439 123.761 351.992 123.523C352.549 123.28 353.218 123.159 353.998 123.159C354.555 123.159 355.068 123.225 355.538 123.358C356.007 123.487 356.416 123.676 356.765 123.926C357.113 124.172 357.382 124.475 357.572 124.835C357.765 125.195 357.862 125.606 357.862 126.068V132H355.248V130.784H355.18C355.024 131.08 354.826 131.33 354.583 131.534C354.344 131.739 354.062 131.892 353.737 131.994C353.415 132.097 353.051 132.148 352.646 132.148ZM353.504 130.33C353.803 130.33 354.072 130.269 354.31 130.148C354.553 130.027 354.746 129.86 354.89 129.648C355.034 129.432 355.106 129.182 355.106 128.898V128.068C355.026 128.11 354.93 128.148 354.816 128.182C354.706 128.216 354.585 128.248 354.452 128.278C354.32 128.309 354.183 128.335 354.043 128.358C353.903 128.381 353.769 128.402 353.64 128.42C353.379 128.462 353.155 128.527 352.969 128.614C352.788 128.701 352.647 128.814 352.549 128.955C352.454 129.091 352.407 129.254 352.407 129.443C352.407 129.731 352.509 129.951 352.714 130.102C352.922 130.254 353.185 130.33 353.504 130.33ZM362.339 127.023V132H359.56V123.273H362.202V124.875H362.299C362.492 124.341 362.822 123.922 363.288 123.619C363.754 123.312 364.308 123.159 364.952 123.159C365.566 123.159 366.098 123.297 366.549 123.574C367.004 123.847 367.356 124.229 367.606 124.722C367.86 125.21 367.985 125.782 367.981 126.438V132H365.202V126.983C365.206 126.498 365.083 126.119 364.833 125.847C364.587 125.574 364.244 125.438 363.805 125.438C363.513 125.438 363.255 125.502 363.032 125.631C362.812 125.756 362.642 125.936 362.521 126.17C362.403 126.405 362.343 126.689 362.339 127.023ZM372.161 132.148C371.604 132.148 371.11 132.055 370.678 131.869C370.25 131.68 369.911 131.396 369.661 131.017C369.415 130.634 369.292 130.155 369.292 129.58C369.292 129.095 369.377 128.686 369.548 128.352C369.718 128.019 369.953 127.748 370.252 127.54C370.551 127.331 370.896 127.174 371.286 127.068C371.676 126.958 372.093 126.884 372.536 126.847C373.032 126.801 373.432 126.754 373.735 126.705C374.038 126.652 374.258 126.578 374.394 126.483C374.534 126.384 374.604 126.246 374.604 126.068V126.04C374.604 125.748 374.504 125.523 374.303 125.364C374.103 125.205 373.832 125.125 373.491 125.125C373.123 125.125 372.828 125.205 372.604 125.364C372.381 125.523 372.239 125.742 372.178 126.023L369.616 125.932C369.692 125.402 369.887 124.928 370.201 124.511C370.519 124.091 370.955 123.761 371.508 123.523C372.065 123.28 372.733 123.159 373.513 123.159C374.07 123.159 374.584 123.225 375.053 123.358C375.523 123.487 375.932 123.676 376.281 123.926C376.629 124.172 376.898 124.475 377.087 124.835C377.281 125.195 377.377 125.606 377.377 126.068V132H374.763V130.784H374.695C374.54 131.08 374.341 131.33 374.099 131.534C373.86 131.739 373.578 131.892 373.252 131.994C372.93 132.097 372.567 132.148 372.161 132.148ZM373.019 130.33C373.318 130.33 373.587 130.269 373.826 130.148C374.068 130.027 374.262 129.86 374.406 129.648C374.549 129.432 374.621 129.182 374.621 128.898V128.068C374.542 128.11 374.445 128.148 374.332 128.182C374.222 128.216 374.101 128.248 373.968 128.278C373.835 128.309 373.699 128.335 373.559 128.358C373.419 128.381 373.284 128.402 373.156 128.42C372.894 128.462 372.671 128.527 372.485 128.614C372.303 128.701 372.163 128.814 372.065 128.955C371.97 129.091 371.923 129.254 371.923 129.443C371.923 129.731 372.025 129.951 372.229 130.102C372.438 130.254 372.701 130.33 373.019 130.33ZM383.144 135.455C382.315 135.455 381.604 135.339 381.013 135.108C380.423 134.877 379.959 134.561 379.621 134.159C379.284 133.758 379.082 133.303 379.013 132.795L381.644 132.648C381.693 132.826 381.784 132.981 381.917 133.114C382.053 133.246 382.229 133.348 382.445 133.42C382.665 133.492 382.923 133.528 383.218 133.528C383.684 133.528 384.068 133.415 384.371 133.188C384.678 132.964 384.832 132.572 384.832 132.011V130.477H384.735C384.625 130.746 384.459 130.987 384.235 131.199C384.012 131.411 383.733 131.578 383.4 131.699C383.07 131.82 382.692 131.881 382.263 131.881C381.627 131.881 381.044 131.733 380.513 131.438C379.987 131.138 379.565 130.676 379.246 130.051C378.932 129.422 378.775 128.614 378.775 127.625C378.775 126.606 378.938 125.767 379.263 125.108C379.589 124.445 380.015 123.955 380.542 123.636C381.072 123.318 381.642 123.159 382.252 123.159C382.71 123.159 383.103 123.239 383.428 123.398C383.758 123.553 384.029 123.754 384.241 124C384.453 124.246 384.614 124.502 384.724 124.767H384.803V123.273H387.57V132.034C387.57 132.773 387.385 133.396 387.013 133.903C386.642 134.411 386.123 134.795 385.457 135.057C384.79 135.322 384.019 135.455 383.144 135.455ZM383.229 129.858C383.567 129.858 383.854 129.769 384.093 129.591C384.332 129.413 384.515 129.157 384.644 128.824C384.773 128.491 384.837 128.091 384.837 127.625C384.837 127.152 384.773 126.744 384.644 126.403C384.519 126.059 384.335 125.794 384.093 125.608C383.854 125.422 383.567 125.33 383.229 125.33C382.885 125.33 382.593 125.424 382.354 125.614C382.116 125.803 381.934 126.07 381.809 126.415C381.688 126.756 381.627 127.159 381.627 127.625C381.627 128.091 381.69 128.491 381.815 128.824C381.94 129.157 382.12 129.413 382.354 129.591C382.593 129.769 382.885 129.858 383.229 129.858ZM393.421 132.165C392.508 132.165 391.72 131.985 391.058 131.625C390.398 131.261 389.891 130.744 389.535 130.074C389.183 129.4 389.006 128.598 389.006 127.67C389.006 126.769 389.184 125.981 389.54 125.307C389.897 124.629 390.398 124.102 391.046 123.727C391.694 123.348 392.457 123.159 393.336 123.159C393.957 123.159 394.525 123.256 395.04 123.449C395.556 123.642 396.001 123.928 396.376 124.307C396.751 124.686 397.042 125.153 397.251 125.71C397.459 126.263 397.563 126.898 397.563 127.614V128.307H389.978V126.693H394.978C394.974 126.398 394.904 126.134 394.768 125.903C394.631 125.672 394.444 125.492 394.205 125.364C393.97 125.231 393.7 125.165 393.393 125.165C393.082 125.165 392.804 125.235 392.558 125.375C392.311 125.511 392.116 125.699 391.972 125.938C391.828 126.172 391.753 126.439 391.745 126.739V128.381C391.745 128.737 391.815 129.049 391.955 129.318C392.095 129.583 392.294 129.79 392.552 129.938C392.809 130.085 393.116 130.159 393.472 130.159C393.719 130.159 393.942 130.125 394.143 130.057C394.344 129.989 394.516 129.888 394.66 129.756C394.804 129.623 394.912 129.46 394.984 129.267L397.535 129.341C397.429 129.913 397.196 130.411 396.836 130.835C396.48 131.256 396.012 131.583 395.433 131.818C394.853 132.049 394.183 132.165 393.421 132.165ZM398.982 132V123.273H401.681V124.864H401.772C401.931 124.288 402.191 123.86 402.55 123.58C402.91 123.295 403.329 123.153 403.806 123.153C403.935 123.153 404.067 123.163 404.204 123.182C404.34 123.197 404.467 123.222 404.585 123.256V125.67C404.452 125.625 404.278 125.589 404.062 125.562C403.85 125.536 403.66 125.523 403.494 125.523C403.164 125.523 402.867 125.597 402.602 125.744C402.34 125.888 402.134 126.091 401.982 126.352C401.835 126.61 401.761 126.913 401.761 127.261V132H398.982Z" fill="white"/>
<defs>
<filter id="filter0_d_122_970" x="17.0967" y="22.2275" width="448.506" height="79.6592" filterUnits="userSpaceOnUse" color-interpolation-filters="sRGB">
<feFlood flood-opacity="0" result="BackgroundImageFix"/>
<feColorMatrix in="SourceAlpha" type="matrix" values="0 0 0 0 0 0 0 0 0 0 0 0 0 0 0 0 0 0 127 0" result="hardAlpha"/>
<feOffset dy="4"/>
<feGaussianBlur stdDeviation="2"/>
<feComposite in2="hardAlpha" operator="out"/>
<feColorMatrix type="matrix" values="0 0 0 0 0 0 0 0 0 0 0 0 0 0 0 0 0 0 0.25 0"/>
<feBlend mode="normal" in2="BackgroundImageFix" result="effect1_dropShadow_122_970"/>
<feBlend mode="normal" in="SourceGraphic" in2="effect1_dropShadow_122_970" result="shape"/>
</filter>
</defs>
</svg>
