<svg xmlns="http://www.w3.org/2000/svg" xmlns:xlink="http://www.w3.org/1999/xlink" width="200" zoomAndPan="magnify" viewBox="0 0 150 52.499999" height="70" preserveAspectRatio="xMidYMid meet" version="1.0"><defs><g/></defs><g fill="#ffffff" fill-opacity="1"><g transform="translate(0.707549, 33.809503)"><g><path d="M 2.84375 0 L 2.84375 -23.484375 L 10.78125 -23.484375 C 12.625 -23.484375 14.128906 -23.148438 15.296875 -22.484375 C 16.472656 -21.828125 17.34375 -20.9375 17.90625 -19.8125 C 18.476562 -18.6875 18.765625 -17.4375 18.765625 -16.0625 C 18.765625 -14.675781 18.484375 -13.414062 17.921875 -12.28125 C 17.359375 -11.15625 16.488281 -10.253906 15.3125 -9.578125 C 14.144531 -8.910156 12.648438 -8.578125 10.828125 -8.578125 L 5.6875 -8.578125 L 5.6875 0 Z M 5.6875 -11.109375 L 10.734375 -11.109375 C 12.617188 -11.109375 13.960938 -11.582031 14.765625 -12.53125 C 15.566406 -13.476562 15.96875 -14.65625 15.96875 -16.0625 C 15.96875 -17.46875 15.566406 -18.632812 14.765625 -19.5625 C 13.960938 -20.5 12.601562 -20.96875 10.6875 -20.96875 L 5.6875 -20.96875 Z M 5.6875 -11.109375 "/></g></g></g><g fill="#ffffff" fill-opacity="1"><g transform="translate(21.211563, 33.809503)"><g><path d="M 2.84375 0 L 2.84375 -23.484375 L 5.6875 -23.484375 L 5.6875 -2.515625 L 16.609375 -2.515625 L 16.609375 0 Z M 2.84375 0 "/></g></g></g><g fill="#ffffff" fill-opacity="1"><g transform="translate(39.376197, 33.809503)"><g><path d="M 3.8125 0 L 0.828125 0 L 9.453125 -23.484375 L 12.390625 -23.484375 L 21.015625 0 L 18.03125 0 L 15.671875 -6.65625 L 6.171875 -6.65625 Z M 7.0625 -9.171875 L 14.765625 -9.171875 L 11.015625 -19.765625 L 10.828125 -19.765625 Z M 7.0625 -9.171875 "/></g></g></g><g fill="#ff7300" fill-opacity="1"><g transform="translate(61.215089, 33.809503)"><g><path d="M 14.78125 -16.734375 C 14.6875 -17.660156 14.289062 -18.378906 13.59375 -18.890625 C 12.894531 -19.398438 11.953125 -19.65625 10.765625 -19.65625 C 9.554688 -19.65625 8.625 -19.40625 7.96875 -18.90625 C 7.320312 -18.414062 7 -17.789062 7 -17.03125 C 6.976562 -16.1875 7.335938 -15.546875 8.078125 -15.109375 C 8.816406 -14.679688 9.695312 -14.351562 10.71875 -14.125 L 12.828125 -13.609375 C 14.179688 -13.304688 15.390625 -12.863281 16.453125 -12.28125 C 17.515625 -11.695312 18.347656 -10.945312 18.953125 -10.03125 C 19.554688 -9.125 19.859375 -8.015625 19.859375 -6.703125 C 19.859375 -4.554688 19.054688 -2.847656 17.453125 -1.578125 C 15.847656 -0.304688 13.613281 0.328125 10.75 0.328125 C 7.894531 0.328125 5.617188 -0.316406 3.921875 -1.609375 C 2.222656 -2.910156 1.34375 -4.832031 1.28125 -7.375 L 6.09375 -7.375 C 6.175781 -6.195312 6.640625 -5.3125 7.484375 -4.71875 C 8.328125 -4.125 9.394531 -3.828125 10.6875 -3.828125 C 11.945312 -3.828125 12.953125 -4.09375 13.703125 -4.625 C 14.460938 -5.164062 14.847656 -5.863281 14.859375 -6.71875 C 14.847656 -7.507812 14.5 -8.117188 13.8125 -8.546875 C 13.125 -8.984375 12.140625 -9.351562 10.859375 -9.65625 L 8.296875 -10.296875 C 6.316406 -10.773438 4.753906 -11.53125 3.609375 -12.5625 C 2.460938 -13.59375 1.894531 -14.972656 1.90625 -16.703125 C 1.894531 -18.117188 2.273438 -19.359375 3.046875 -20.421875 C 3.816406 -21.492188 4.875 -22.328125 6.21875 -22.921875 C 7.5625 -23.515625 9.085938 -23.8125 10.796875 -23.8125 C 12.546875 -23.8125 14.070312 -23.507812 15.375 -22.90625 C 16.675781 -22.3125 17.691406 -21.484375 18.421875 -20.421875 C 19.148438 -19.359375 19.523438 -18.128906 19.546875 -16.734375 Z M 14.78125 -16.734375 "/></g></g></g><g fill="#ff7300" fill-opacity="1"><g transform="translate(82.361288, 33.809503)"><g><path d="M 1.140625 -19.390625 L 1.140625 -23.484375 L 20.4375 -23.484375 L 20.4375 -19.390625 L 13.25 -19.390625 L 13.25 0 L 8.34375 0 L 8.34375 -19.390625 Z M 1.140625 -19.390625 "/></g></g></g><g fill="#ff7300" fill-opacity="1"><g transform="translate(103.943258, 33.809503)"><g><path d="M 6.09375 0 L 0.765625 0 L 8.875 -23.484375 L 15.28125 -23.484375 L 23.375 0 L 18.046875 0 L 16.3125 -5.359375 L 7.828125 -5.359375 Z M 9.09375 -9.234375 L 15.0625 -9.234375 L 12.171875 -18.125 L 11.984375 -18.125 Z M 9.09375 -9.234375 "/></g></g></g><g fill="#ff7300" fill-opacity="1"><g transform="translate(128.093964, 33.809503)"><g><path d="M 2.046875 0 L 2.046875 -23.484375 L 11.3125 -23.484375 C 13.976562 -23.484375 16.046875 -22.785156 17.515625 -21.390625 C 18.992188 -20.003906 19.734375 -18.144531 19.734375 -15.8125 C 19.734375 -14.207031 19.375 -12.832031 18.65625 -11.6875 C 17.9375 -10.550781 16.910156 -9.695312 15.578125 -9.125 L 20.5625 0 L 15.078125 0 L 10.625 -8.328125 L 7 -8.328125 L 7 0 Z M 7 -12.3125 L 10.375 -12.3125 C 13.195312 -12.3125 14.609375 -13.476562 14.609375 -15.8125 C 14.609375 -18.21875 13.191406 -19.421875 10.359375 -19.421875 L 7 -19.421875 Z M 7 -12.3125 "/></g></g></g><g fill="#ffffff" fill-opacity="1"><g transform="translate(2.690529, 41.690696)"><g><path d="M 0.359375 -4.734375 L 0.359375 -5.296875 L 4.328125 -5.296875 L 4.328125 -4.734375 L 2.65625 -4.734375 L 2.65625 0 L 2.015625 0 L 2.015625 -4.734375 Z M 0.359375 -4.734375 "/></g></g></g><g fill="#ffffff" fill-opacity="1"><g transform="translate(7.362178, 41.690696)"><g><path d="M 1.171875 -2.390625 L 1.171875 0 L 0.5625 0 L 0.5625 -5.296875 L 1.171875 -5.296875 L 1.171875 -3.34375 L 1.21875 -3.34375 C 1.3125 -3.550781 1.453125 -3.710938 1.640625 -3.828125 C 1.828125 -3.953125 2.078125 -4.015625 2.390625 -4.015625 C 2.796875 -4.015625 3.125 -3.890625 3.375 -3.640625 C 3.625 -3.398438 3.75 -3.03125 3.75 -2.53125 L 3.75 0 L 3.140625 0 L 3.140625 -2.484375 C 3.140625 -2.796875 3.054688 -3.035156 2.890625 -3.203125 C 2.722656 -3.378906 2.5 -3.46875 2.21875 -3.46875 C 1.914062 -3.46875 1.664062 -3.375 1.46875 -3.1875 C 1.269531 -3 1.171875 -2.734375 1.171875 -2.390625 Z M 1.171875 -2.390625 "/></g></g></g><g fill="#ffffff" fill-opacity="1"><g transform="translate(11.661747, 41.690696)"><g><path d="M 2.21875 0.078125 C 1.84375 0.078125 1.515625 -0.00390625 1.234375 -0.171875 C 0.953125 -0.335938 0.738281 -0.570312 0.59375 -0.875 C 0.445312 -1.1875 0.375 -1.546875 0.375 -1.953125 C 0.375 -2.359375 0.445312 -2.71875 0.59375 -3.03125 C 0.738281 -3.34375 0.945312 -3.582031 1.21875 -3.75 C 1.488281 -3.925781 1.800781 -4.015625 2.15625 -4.015625 C 2.363281 -4.015625 2.566406 -3.976562 2.765625 -3.90625 C 2.972656 -3.84375 3.160156 -3.734375 3.328125 -3.578125 C 3.492188 -3.429688 3.625 -3.226562 3.71875 -2.96875 C 3.820312 -2.71875 3.875 -2.40625 3.875 -2.03125 L 3.875 -1.78125 L 0.984375 -1.78125 C 0.992188 -1.351562 1.113281 -1.023438 1.34375 -0.796875 C 1.570312 -0.578125 1.863281 -0.46875 2.21875 -0.46875 C 2.457031 -0.46875 2.660156 -0.519531 2.828125 -0.625 C 3.003906 -0.726562 3.132812 -0.882812 3.21875 -1.09375 L 3.8125 -0.921875 C 3.71875 -0.617188 3.53125 -0.375 3.25 -0.1875 C 2.96875 -0.0078125 2.625 0.078125 2.21875 0.078125 Z M 0.984375 -2.3125 L 3.25 -2.3125 C 3.25 -2.644531 3.148438 -2.921875 2.953125 -3.140625 C 2.753906 -3.359375 2.488281 -3.46875 2.15625 -3.46875 C 1.925781 -3.46875 1.722656 -3.414062 1.546875 -3.3125 C 1.378906 -3.207031 1.242188 -3.0625 1.140625 -2.875 C 1.046875 -2.695312 0.992188 -2.507812 0.984375 -2.3125 Z M 0.984375 -2.3125 "/></g></g></g><g fill="#ffffff" fill-opacity="1"><g transform="translate(15.899302, 41.690696)"><g/></g></g><g fill="#ffffff" fill-opacity="1"><g transform="translate(17.945733, 41.690696)"><g><path d="M 0.640625 0 L 0.640625 -5.296875 L 2.5 -5.296875 C 2.863281 -5.296875 3.164062 -5.234375 3.40625 -5.109375 C 3.644531 -4.984375 3.820312 -4.8125 3.9375 -4.59375 C 4.050781 -4.382812 4.109375 -4.148438 4.109375 -3.890625 C 4.109375 -3.660156 4.066406 -3.472656 3.984375 -3.328125 C 3.910156 -3.179688 3.804688 -3.0625 3.671875 -2.96875 C 3.546875 -2.882812 3.410156 -2.820312 3.265625 -2.78125 L 3.265625 -2.734375 C 3.421875 -2.722656 3.582031 -2.664062 3.75 -2.5625 C 3.914062 -2.457031 4.050781 -2.304688 4.15625 -2.109375 C 4.269531 -1.921875 4.328125 -1.6875 4.328125 -1.40625 C 4.328125 -1.144531 4.265625 -0.90625 4.140625 -0.6875 C 4.023438 -0.476562 3.835938 -0.3125 3.578125 -0.1875 C 3.316406 -0.0625 2.972656 0 2.546875 0 Z M 1.28125 -0.5625 L 2.546875 -0.5625 C 2.972656 -0.5625 3.273438 -0.644531 3.453125 -0.8125 C 3.628906 -0.976562 3.71875 -1.175781 3.71875 -1.40625 C 3.71875 -1.582031 3.671875 -1.75 3.578125 -1.90625 C 3.484375 -2.0625 3.351562 -2.179688 3.1875 -2.265625 C 3.019531 -2.359375 2.816406 -2.40625 2.578125 -2.40625 L 1.28125 -2.40625 Z M 1.28125 -2.96875 L 2.46875 -2.96875 C 2.757812 -2.96875 3.003906 -3.050781 3.203125 -3.21875 C 3.398438 -3.382812 3.5 -3.609375 3.5 -3.890625 C 3.5 -4.117188 3.414062 -4.316406 3.25 -4.484375 C 3.09375 -4.648438 2.84375 -4.734375 2.5 -4.734375 L 1.28125 -4.734375 Z M 1.28125 -2.96875 "/></g></g></g><g fill="#ffffff" fill-opacity="1"><g transform="translate(22.679392, 41.690696)"><g><path d="M 1.734375 0.09375 C 1.472656 0.09375 1.238281 0.046875 1.03125 -0.046875 C 0.832031 -0.140625 0.671875 -0.273438 0.546875 -0.453125 C 0.429688 -0.640625 0.375 -0.863281 0.375 -1.125 C 0.375 -1.351562 0.414062 -1.535156 0.5 -1.671875 C 0.59375 -1.816406 0.710938 -1.929688 0.859375 -2.015625 C 1.015625 -2.097656 1.179688 -2.160156 1.359375 -2.203125 C 1.546875 -2.242188 1.726562 -2.273438 1.90625 -2.296875 C 2.15625 -2.328125 2.351562 -2.347656 2.5 -2.359375 C 2.65625 -2.378906 2.765625 -2.410156 2.828125 -2.453125 C 2.898438 -2.492188 2.9375 -2.5625 2.9375 -2.65625 L 2.9375 -2.671875 C 2.9375 -2.929688 2.863281 -3.128906 2.71875 -3.265625 C 2.582031 -3.410156 2.375 -3.484375 2.09375 -3.484375 C 1.800781 -3.484375 1.570312 -3.421875 1.40625 -3.296875 C 1.25 -3.171875 1.132812 -3.035156 1.0625 -2.890625 L 0.484375 -3.09375 C 0.585938 -3.332031 0.722656 -3.519531 0.890625 -3.65625 C 1.066406 -3.789062 1.257812 -3.882812 1.46875 -3.9375 C 1.675781 -3.988281 1.878906 -4.015625 2.078125 -4.015625 C 2.203125 -4.015625 2.347656 -4 2.515625 -3.96875 C 2.679688 -3.945312 2.84375 -3.890625 3 -3.796875 C 3.15625 -3.703125 3.285156 -3.5625 3.390625 -3.375 C 3.492188 -3.1875 3.546875 -2.929688 3.546875 -2.609375 L 3.546875 0 L 2.9375 0 L 2.9375 -0.53125 L 2.90625 -0.53125 C 2.863281 -0.445312 2.789062 -0.351562 2.6875 -0.25 C 2.59375 -0.15625 2.46875 -0.0703125 2.3125 0 C 2.15625 0.0625 1.960938 0.09375 1.734375 0.09375 Z M 1.8125 -0.453125 C 2.0625 -0.453125 2.269531 -0.5 2.4375 -0.59375 C 2.601562 -0.6875 2.726562 -0.804688 2.8125 -0.953125 C 2.894531 -1.109375 2.9375 -1.269531 2.9375 -1.4375 L 2.9375 -2 C 2.914062 -1.96875 2.859375 -1.9375 2.765625 -1.90625 C 2.679688 -1.882812 2.582031 -1.863281 2.46875 -1.84375 C 2.351562 -1.820312 2.242188 -1.804688 2.140625 -1.796875 C 2.035156 -1.785156 1.945312 -1.773438 1.875 -1.765625 C 1.71875 -1.742188 1.570312 -1.707031 1.4375 -1.65625 C 1.300781 -1.613281 1.191406 -1.546875 1.109375 -1.453125 C 1.023438 -1.367188 0.984375 -1.25 0.984375 -1.09375 C 0.984375 -0.882812 1.0625 -0.722656 1.21875 -0.609375 C 1.375 -0.503906 1.570312 -0.453125 1.8125 -0.453125 Z M 1.8125 -0.453125 "/></g></g></g><g fill="#ffffff" fill-opacity="1"><g transform="translate(26.782588, 41.690696)"><g><path d="M 0.5625 0 L 0.5625 -3.96875 L 1.140625 -3.96875 L 1.140625 -3.375 L 1.1875 -3.375 C 1.257812 -3.570312 1.390625 -3.726562 1.578125 -3.84375 C 1.765625 -3.96875 1.976562 -4.03125 2.21875 -4.03125 C 2.332031 -4.03125 2.429688 -4.015625 2.515625 -3.984375 C 2.597656 -3.960938 2.671875 -3.929688 2.734375 -3.890625 L 2.53125 -3.375 C 2.476562 -3.394531 2.421875 -3.410156 2.359375 -3.421875 C 2.304688 -3.429688 2.242188 -3.4375 2.171875 -3.4375 C 1.878906 -3.4375 1.640625 -3.347656 1.453125 -3.171875 C 1.265625 -2.992188 1.171875 -2.773438 1.171875 -2.515625 L 1.171875 0 Z M 0.5625 0 "/></g></g></g><g fill="#ffffff" fill-opacity="1"><g transform="translate(29.573173, 41.690696)"><g><path d="M 1.734375 0.09375 C 1.472656 0.09375 1.238281 0.046875 1.03125 -0.046875 C 0.832031 -0.140625 0.671875 -0.273438 0.546875 -0.453125 C 0.429688 -0.640625 0.375 -0.863281 0.375 -1.125 C 0.375 -1.351562 0.414062 -1.535156 0.5 -1.671875 C 0.59375 -1.816406 0.710938 -1.929688 0.859375 -2.015625 C 1.015625 -2.097656 1.179688 -2.160156 1.359375 -2.203125 C 1.546875 -2.242188 1.726562 -2.273438 1.90625 -2.296875 C 2.15625 -2.328125 2.351562 -2.347656 2.5 -2.359375 C 2.65625 -2.378906 2.765625 -2.410156 2.828125 -2.453125 C 2.898438 -2.492188 2.9375 -2.5625 2.9375 -2.65625 L 2.9375 -2.671875 C 2.9375 -2.929688 2.863281 -3.128906 2.71875 -3.265625 C 2.582031 -3.410156 2.375 -3.484375 2.09375 -3.484375 C 1.800781 -3.484375 1.570312 -3.421875 1.40625 -3.296875 C 1.25 -3.171875 1.132812 -3.035156 1.0625 -2.890625 L 0.484375 -3.09375 C 0.585938 -3.332031 0.722656 -3.519531 0.890625 -3.65625 C 1.066406 -3.789062 1.257812 -3.882812 1.46875 -3.9375 C 1.675781 -3.988281 1.878906 -4.015625 2.078125 -4.015625 C 2.203125 -4.015625 2.347656 -4 2.515625 -3.96875 C 2.679688 -3.945312 2.84375 -3.890625 3 -3.796875 C 3.15625 -3.703125 3.285156 -3.5625 3.390625 -3.375 C 3.492188 -3.1875 3.546875 -2.929688 3.546875 -2.609375 L 3.546875 0 L 2.9375 0 L 2.9375 -0.53125 L 2.90625 -0.53125 C 2.863281 -0.445312 2.789062 -0.351562 2.6875 -0.25 C 2.59375 -0.15625 2.46875 -0.0703125 2.3125 0 C 2.15625 0.0625 1.960938 0.09375 1.734375 0.09375 Z M 1.8125 -0.453125 C 2.0625 -0.453125 2.269531 -0.5 2.4375 -0.59375 C 2.601562 -0.6875 2.726562 -0.804688 2.8125 -0.953125 C 2.894531 -1.109375 2.9375 -1.269531 2.9375 -1.4375 L 2.9375 -2 C 2.914062 -1.96875 2.859375 -1.9375 2.765625 -1.90625 C 2.679688 -1.882812 2.582031 -1.863281 2.46875 -1.84375 C 2.351562 -1.820312 2.242188 -1.804688 2.140625 -1.796875 C 2.035156 -1.785156 1.945312 -1.773438 1.875 -1.765625 C 1.71875 -1.742188 1.570312 -1.707031 1.4375 -1.65625 C 1.300781 -1.613281 1.191406 -1.546875 1.109375 -1.453125 C 1.023438 -1.367188 0.984375 -1.25 0.984375 -1.09375 C 0.984375 -0.882812 1.0625 -0.722656 1.21875 -0.609375 C 1.375 -0.503906 1.570312 -0.453125 1.8125 -0.453125 Z M 1.8125 -0.453125 "/></g></g></g><g fill="#ffffff" fill-opacity="1"><g transform="translate(33.67637, 41.690696)"><g><path d="M 1.171875 -2.390625 L 1.171875 0 L 0.5625 0 L 0.5625 -3.96875 L 1.140625 -3.96875 L 1.140625 -3.34375 L 1.203125 -3.34375 C 1.296875 -3.550781 1.4375 -3.710938 1.625 -3.828125 C 1.8125 -3.953125 2.054688 -4.015625 2.359375 -4.015625 C 2.753906 -4.015625 3.078125 -3.890625 3.328125 -3.640625 C 3.578125 -3.398438 3.703125 -3.03125 3.703125 -2.53125 L 3.703125 0 L 3.09375 0 L 3.09375 -2.484375 C 3.09375 -2.796875 3.007812 -3.035156 2.84375 -3.203125 C 2.6875 -3.378906 2.46875 -3.46875 2.1875 -3.46875 C 1.894531 -3.46875 1.648438 -3.375 1.453125 -3.1875 C 1.265625 -3 1.171875 -2.734375 1.171875 -2.390625 Z M 1.171875 -2.390625 "/></g></g></g><g fill="#ffffff" fill-opacity="1"><g transform="translate(37.934596, 41.690696)"><g><path d="M 2.15625 1.578125 C 1.71875 1.578125 1.367188 1.492188 1.109375 1.328125 C 0.847656 1.171875 0.65625 0.988281 0.53125 0.78125 L 1.03125 0.4375 C 1.082031 0.507812 1.148438 0.59375 1.234375 0.6875 C 1.316406 0.78125 1.429688 0.859375 1.578125 0.921875 C 1.722656 0.992188 1.914062 1.03125 2.15625 1.03125 C 2.476562 1.03125 2.742188 0.953125 2.953125 0.796875 C 3.160156 0.640625 3.265625 0.398438 3.265625 0.078125 L 3.265625 -0.734375 L 3.21875 -0.734375 C 3.175781 -0.660156 3.113281 -0.570312 3.03125 -0.46875 C 2.945312 -0.363281 2.828125 -0.269531 2.671875 -0.1875 C 2.523438 -0.101562 2.320312 -0.0625 2.0625 -0.0625 C 1.738281 -0.0625 1.445312 -0.132812 1.1875 -0.28125 C 0.9375 -0.4375 0.738281 -0.660156 0.59375 -0.953125 C 0.445312 -1.242188 0.375 -1.59375 0.375 -2 C 0.375 -2.40625 0.441406 -2.757812 0.578125 -3.0625 C 0.722656 -3.375 0.921875 -3.609375 1.171875 -3.765625 C 1.429688 -3.929688 1.726562 -4.015625 2.0625 -4.015625 C 2.320312 -4.015625 2.523438 -3.972656 2.671875 -3.890625 C 2.828125 -3.804688 2.945312 -3.707031 3.03125 -3.59375 C 3.113281 -3.488281 3.179688 -3.40625 3.234375 -3.34375 L 3.28125 -3.34375 L 3.28125 -3.96875 L 3.875 -3.96875 L 3.875 0.109375 C 3.875 0.453125 3.796875 0.726562 3.640625 0.9375 C 3.492188 1.15625 3.289062 1.316406 3.03125 1.421875 C 2.769531 1.523438 2.476562 1.578125 2.15625 1.578125 Z M 2.140625 -0.609375 C 2.503906 -0.609375 2.785156 -0.734375 2.984375 -0.984375 C 3.179688 -1.234375 3.28125 -1.578125 3.28125 -2.015625 C 3.28125 -2.441406 3.179688 -2.789062 2.984375 -3.0625 C 2.796875 -3.332031 2.515625 -3.46875 2.140625 -3.46875 C 1.878906 -3.46875 1.660156 -3.398438 1.484375 -3.265625 C 1.316406 -3.140625 1.191406 -2.96875 1.109375 -2.75 C 1.023438 -2.53125 0.984375 -2.285156 0.984375 -2.015625 C 0.984375 -1.597656 1.078125 -1.257812 1.265625 -1 C 1.460938 -0.738281 1.753906 -0.609375 2.140625 -0.609375 Z M 2.140625 -0.609375 "/></g></g></g><g fill="#ffffff" fill-opacity="1"><g transform="translate(42.368528, 41.690696)"><g><path d="M 1.734375 0.09375 C 1.472656 0.09375 1.238281 0.046875 1.03125 -0.046875 C 0.832031 -0.140625 0.671875 -0.273438 0.546875 -0.453125 C 0.429688 -0.640625 0.375 -0.863281 0.375 -1.125 C 0.375 -1.351562 0.414062 -1.535156 0.5 -1.671875 C 0.59375 -1.816406 0.710938 -1.929688 0.859375 -2.015625 C 1.015625 -2.097656 1.179688 -2.160156 1.359375 -2.203125 C 1.546875 -2.242188 1.726562 -2.273438 1.90625 -2.296875 C 2.15625 -2.328125 2.351562 -2.347656 2.5 -2.359375 C 2.65625 -2.378906 2.765625 -2.410156 2.828125 -2.453125 C 2.898438 -2.492188 2.9375 -2.5625 2.9375 -2.65625 L 2.9375 -2.671875 C 2.9375 -2.929688 2.863281 -3.128906 2.71875 -3.265625 C 2.582031 -3.410156 2.375 -3.484375 2.09375 -3.484375 C 1.800781 -3.484375 1.570312 -3.421875 1.40625 -3.296875 C 1.25 -3.171875 1.132812 -3.035156 1.0625 -2.890625 L 0.484375 -3.09375 C 0.585938 -3.332031 0.722656 -3.519531 0.890625 -3.65625 C 1.066406 -3.789062 1.257812 -3.882812 1.46875 -3.9375 C 1.675781 -3.988281 1.878906 -4.015625 2.078125 -4.015625 C 2.203125 -4.015625 2.347656 -4 2.515625 -3.96875 C 2.679688 -3.945312 2.84375 -3.890625 3 -3.796875 C 3.15625 -3.703125 3.285156 -3.5625 3.390625 -3.375 C 3.492188 -3.1875 3.546875 -2.929688 3.546875 -2.609375 L 3.546875 0 L 2.9375 0 L 2.9375 -0.53125 L 2.90625 -0.53125 C 2.863281 -0.445312 2.789062 -0.351562 2.6875 -0.25 C 2.59375 -0.15625 2.46875 -0.0703125 2.3125 0 C 2.15625 0.0625 1.960938 0.09375 1.734375 0.09375 Z M 1.8125 -0.453125 C 2.0625 -0.453125 2.269531 -0.5 2.4375 -0.59375 C 2.601562 -0.6875 2.726562 -0.804688 2.8125 -0.953125 C 2.894531 -1.109375 2.9375 -1.269531 2.9375 -1.4375 L 2.9375 -2 C 2.914062 -1.96875 2.859375 -1.9375 2.765625 -1.90625 C 2.679688 -1.882812 2.582031 -1.863281 2.46875 -1.84375 C 2.351562 -1.820312 2.242188 -1.804688 2.140625 -1.796875 C 2.035156 -1.785156 1.945312 -1.773438 1.875 -1.765625 C 1.71875 -1.742188 1.570312 -1.707031 1.4375 -1.65625 C 1.300781 -1.613281 1.191406 -1.546875 1.109375 -1.453125 C 1.023438 -1.367188 0.984375 -1.25 0.984375 -1.09375 C 0.984375 -0.882812 1.0625 -0.722656 1.21875 -0.609375 C 1.375 -0.503906 1.570312 -0.453125 1.8125 -0.453125 Z M 1.8125 -0.453125 "/></g></g></g><g fill="#ffffff" fill-opacity="1"><g transform="translate(46.471724, 41.690696)"><g><path d="M 0.9375 1.546875 C 0.832031 1.546875 0.738281 1.535156 0.65625 1.515625 C 0.570312 1.492188 0.515625 1.476562 0.484375 1.46875 L 0.640625 0.9375 C 0.859375 0.988281 1.039062 0.984375 1.1875 0.921875 C 1.34375 0.867188 1.472656 0.691406 1.578125 0.390625 L 1.71875 0.015625 L 0.25 -3.96875 L 0.90625 -3.96875 L 2 -0.8125 L 2.046875 -0.8125 L 3.140625 -3.96875 L 3.8125 -3.96875 L 2.09375 0.640625 C 1.875 1.242188 1.488281 1.546875 0.9375 1.546875 Z M 0.9375 1.546875 "/></g></g></g><g fill="#ffffff" fill-opacity="1"><g transform="translate(50.523244, 41.690696)"><g/></g></g><g fill="#ffffff" fill-opacity="1"><g transform="translate(52.569676, 41.690696)"><g><path d="M 0.640625 0 L 0.640625 -5.296875 L 1.28125 -5.296875 L 1.28125 -0.5625 L 3.75 -0.5625 L 3.75 0 Z M 0.640625 0 "/></g></g></g><g fill="#ffffff" fill-opacity="1"><g transform="translate(56.662534, 41.690696)"><g><path d="M 2.21875 0.078125 C 1.84375 0.078125 1.515625 -0.00390625 1.234375 -0.171875 C 0.953125 -0.335938 0.738281 -0.570312 0.59375 -0.875 C 0.445312 -1.1875 0.375 -1.546875 0.375 -1.953125 C 0.375 -2.359375 0.445312 -2.71875 0.59375 -3.03125 C 0.738281 -3.34375 0.945312 -3.582031 1.21875 -3.75 C 1.488281 -3.925781 1.800781 -4.015625 2.15625 -4.015625 C 2.363281 -4.015625 2.566406 -3.976562 2.765625 -3.90625 C 2.972656 -3.84375 3.160156 -3.734375 3.328125 -3.578125 C 3.492188 -3.429688 3.625 -3.226562 3.71875 -2.96875 C 3.820312 -2.71875 3.875 -2.40625 3.875 -2.03125 L 3.875 -1.78125 L 0.984375 -1.78125 C 0.992188 -1.351562 1.113281 -1.023438 1.34375 -0.796875 C 1.570312 -0.578125 1.863281 -0.46875 2.21875 -0.46875 C 2.457031 -0.46875 2.660156 -0.519531 2.828125 -0.625 C 3.003906 -0.726562 3.132812 -0.882812 3.21875 -1.09375 L 3.8125 -0.921875 C 3.71875 -0.617188 3.53125 -0.375 3.25 -0.1875 C 2.96875 -0.0078125 2.625 0.078125 2.21875 0.078125 Z M 0.984375 -2.3125 L 3.25 -2.3125 C 3.25 -2.644531 3.148438 -2.921875 2.953125 -3.140625 C 2.753906 -3.359375 2.488281 -3.46875 2.15625 -3.46875 C 1.925781 -3.46875 1.722656 -3.414062 1.546875 -3.3125 C 1.378906 -3.207031 1.242188 -3.0625 1.140625 -2.875 C 1.046875 -2.695312 0.992188 -2.507812 0.984375 -2.3125 Z M 0.984375 -2.3125 "/></g></g></g><g fill="#ffffff" fill-opacity="1"><g transform="translate(60.900088, 41.690696)"><g><path d="M 1.171875 -2.390625 L 1.171875 0 L 0.5625 0 L 0.5625 -3.96875 L 1.140625 -3.96875 L 1.140625 -3.34375 L 1.203125 -3.34375 C 1.296875 -3.550781 1.4375 -3.710938 1.625 -3.828125 C 1.8125 -3.953125 2.054688 -4.015625 2.359375 -4.015625 C 2.753906 -4.015625 3.078125 -3.890625 3.328125 -3.640625 C 3.578125 -3.398438 3.703125 -3.03125 3.703125 -2.53125 L 3.703125 0 L 3.09375 0 L 3.09375 -2.484375 C 3.09375 -2.796875 3.007812 -3.035156 2.84375 -3.203125 C 2.6875 -3.378906 2.46875 -3.46875 2.1875 -3.46875 C 1.894531 -3.46875 1.648438 -3.375 1.453125 -3.1875 C 1.265625 -3 1.171875 -2.734375 1.171875 -2.390625 Z M 1.171875 -2.390625 "/></g></g></g><g fill="#ffffff" fill-opacity="1"><g transform="translate(65.158314, 41.690696)"><g><path d="M 2.0625 0.078125 C 1.726562 0.078125 1.429688 -0.00390625 1.171875 -0.171875 C 0.921875 -0.335938 0.722656 -0.570312 0.578125 -0.875 C 0.441406 -1.1875 0.375 -1.550781 0.375 -1.96875 C 0.375 -2.382812 0.441406 -2.742188 0.578125 -3.046875 C 0.722656 -3.359375 0.921875 -3.597656 1.171875 -3.765625 C 1.429688 -3.929688 1.726562 -4.015625 2.0625 -4.015625 C 2.320312 -4.015625 2.523438 -3.972656 2.671875 -3.890625 C 2.828125 -3.804688 2.945312 -3.707031 3.03125 -3.59375 C 3.113281 -3.488281 3.175781 -3.40625 3.21875 -3.34375 L 3.265625 -3.34375 L 3.265625 -5.296875 L 3.875 -5.296875 L 3.875 0 L 3.28125 0 L 3.28125 -0.609375 L 3.21875 -0.609375 C 3.175781 -0.535156 3.113281 -0.441406 3.03125 -0.328125 C 2.945312 -0.222656 2.828125 -0.128906 2.671875 -0.046875 C 2.515625 0.0351562 2.3125 0.078125 2.0625 0.078125 Z M 2.140625 -0.46875 C 2.503906 -0.46875 2.785156 -0.609375 2.984375 -0.890625 C 3.179688 -1.171875 3.28125 -1.535156 3.28125 -1.984375 C 3.28125 -2.429688 3.179688 -2.789062 2.984375 -3.0625 C 2.796875 -3.332031 2.515625 -3.46875 2.140625 -3.46875 C 1.878906 -3.46875 1.660156 -3.398438 1.484375 -3.265625 C 1.316406 -3.140625 1.191406 -2.960938 1.109375 -2.734375 C 1.023438 -2.515625 0.984375 -2.265625 0.984375 -1.984375 C 0.984375 -1.703125 1.023438 -1.445312 1.109375 -1.21875 C 1.203125 -0.988281 1.332031 -0.804688 1.5 -0.671875 C 1.675781 -0.535156 1.890625 -0.46875 2.140625 -0.46875 Z M 2.140625 -0.46875 "/></g></g></g><g fill="#ffffff" fill-opacity="1"><g transform="translate(69.674928, 41.690696)"><g><path d="M 0.5625 0 L 0.5625 -3.96875 L 1.171875 -3.96875 L 1.171875 0 Z M 0.875 -4.640625 C 0.75 -4.640625 0.644531 -4.675781 0.5625 -4.75 C 0.476562 -4.832031 0.4375 -4.929688 0.4375 -5.046875 C 0.4375 -5.160156 0.476562 -5.253906 0.5625 -5.328125 C 0.644531 -5.410156 0.75 -5.453125 0.875 -5.453125 C 0.988281 -5.453125 1.085938 -5.410156 1.171875 -5.328125 C 1.253906 -5.253906 1.296875 -5.160156 1.296875 -5.046875 C 1.296875 -4.929688 1.253906 -4.832031 1.171875 -4.75 C 1.085938 -4.675781 0.988281 -4.640625 0.875 -4.640625 Z M 0.875 -4.640625 "/></g></g></g><g fill="#ffffff" fill-opacity="1"><g transform="translate(71.400957, 41.690696)"><g><path d="M 1.171875 -2.390625 L 1.171875 0 L 0.5625 0 L 0.5625 -3.96875 L 1.140625 -3.96875 L 1.140625 -3.34375 L 1.203125 -3.34375 C 1.296875 -3.550781 1.4375 -3.710938 1.625 -3.828125 C 1.8125 -3.953125 2.054688 -4.015625 2.359375 -4.015625 C 2.753906 -4.015625 3.078125 -3.890625 3.328125 -3.640625 C 3.578125 -3.398438 3.703125 -3.03125 3.703125 -2.53125 L 3.703125 0 L 3.09375 0 L 3.09375 -2.484375 C 3.09375 -2.796875 3.007812 -3.035156 2.84375 -3.203125 C 2.6875 -3.378906 2.46875 -3.46875 2.1875 -3.46875 C 1.894531 -3.46875 1.648438 -3.375 1.453125 -3.1875 C 1.265625 -3 1.171875 -2.734375 1.171875 -2.390625 Z M 1.171875 -2.390625 "/></g></g></g><g fill="#ffffff" fill-opacity="1"><g transform="translate(75.659183, 41.690696)"><g><path d="M 2.15625 1.578125 C 1.71875 1.578125 1.367188 1.492188 1.109375 1.328125 C 0.847656 1.171875 0.65625 0.988281 0.53125 0.78125 L 1.03125 0.4375 C 1.082031 0.507812 1.148438 0.59375 1.234375 0.6875 C 1.316406 0.78125 1.429688 0.859375 1.578125 0.921875 C 1.722656 0.992188 1.914062 1.03125 2.15625 1.03125 C 2.476562 1.03125 2.742188 0.953125 2.953125 0.796875 C 3.160156 0.640625 3.265625 0.398438 3.265625 0.078125 L 3.265625 -0.734375 L 3.21875 -0.734375 C 3.175781 -0.660156 3.113281 -0.570312 3.03125 -0.46875 C 2.945312 -0.363281 2.828125 -0.269531 2.671875 -0.1875 C 2.523438 -0.101562 2.320312 -0.0625 2.0625 -0.0625 C 1.738281 -0.0625 1.445312 -0.132812 1.1875 -0.28125 C 0.9375 -0.4375 0.738281 -0.660156 0.59375 -0.953125 C 0.445312 -1.242188 0.375 -1.59375 0.375 -2 C 0.375 -2.40625 0.441406 -2.757812 0.578125 -3.0625 C 0.722656 -3.375 0.921875 -3.609375 1.171875 -3.765625 C 1.429688 -3.929688 1.726562 -4.015625 2.0625 -4.015625 C 2.320312 -4.015625 2.523438 -3.972656 2.671875 -3.890625 C 2.828125 -3.804688 2.945312 -3.707031 3.03125 -3.59375 C 3.113281 -3.488281 3.179688 -3.40625 3.234375 -3.34375 L 3.28125 -3.34375 L 3.28125 -3.96875 L 3.875 -3.96875 L 3.875 0.109375 C 3.875 0.453125 3.796875 0.726562 3.640625 0.9375 C 3.492188 1.15625 3.289062 1.316406 3.03125 1.421875 C 2.769531 1.523438 2.476562 1.578125 2.15625 1.578125 Z M 2.140625 -0.609375 C 2.503906 -0.609375 2.785156 -0.734375 2.984375 -0.984375 C 3.179688 -1.234375 3.28125 -1.578125 3.28125 -2.015625 C 3.28125 -2.441406 3.179688 -2.789062 2.984375 -3.0625 C 2.796875 -3.332031 2.515625 -3.46875 2.140625 -3.46875 C 1.878906 -3.46875 1.660156 -3.398438 1.484375 -3.265625 C 1.316406 -3.140625 1.191406 -2.96875 1.109375 -2.75 C 1.023438 -2.53125 0.984375 -2.285156 0.984375 -2.015625 C 0.984375 -1.597656 1.078125 -1.257812 1.265625 -1 C 1.460938 -0.738281 1.753906 -0.609375 2.140625 -0.609375 Z M 2.140625 -0.609375 "/></g></g></g><g fill="#ffffff" fill-opacity="1"><g transform="translate(80.093115, 41.690696)"><g/></g></g><g fill="#ffffff" fill-opacity="1"><g transform="translate(82.139547, 41.690696)"><g><path d="M 1.28125 -5.296875 L 1.28125 0 L 0.640625 0 L 0.640625 -5.296875 Z M 1.28125 -5.296875 "/></g></g></g><g fill="#ffffff" fill-opacity="1"><g transform="translate(84.061948, 41.690696)"><g><path d="M 1.171875 -2.390625 L 1.171875 0 L 0.5625 0 L 0.5625 -3.96875 L 1.140625 -3.96875 L 1.140625 -3.34375 L 1.203125 -3.34375 C 1.296875 -3.550781 1.4375 -3.710938 1.625 -3.828125 C 1.8125 -3.953125 2.054688 -4.015625 2.359375 -4.015625 C 2.753906 -4.015625 3.078125 -3.890625 3.328125 -3.640625 C 3.578125 -3.398438 3.703125 -3.03125 3.703125 -2.53125 L 3.703125 0 L 3.09375 0 L 3.09375 -2.484375 C 3.09375 -2.796875 3.007812 -3.035156 2.84375 -3.203125 C 2.6875 -3.378906 2.46875 -3.46875 2.1875 -3.46875 C 1.894531 -3.46875 1.648438 -3.375 1.453125 -3.1875 C 1.265625 -3 1.171875 -2.734375 1.171875 -2.390625 Z M 1.171875 -2.390625 "/></g></g></g><g fill="#ffffff" fill-opacity="1"><g transform="translate(88.320174, 41.690696)"><g><path d="M 3.8125 -3.96875 L 2.34375 0 L 1.71875 0 L 0.25 -3.96875 L 0.90625 -3.96875 L 2 -0.8125 L 2.046875 -0.8125 L 3.140625 -3.96875 Z M 3.8125 -3.96875 "/></g></g></g><g fill="#ffffff" fill-opacity="1"><g transform="translate(92.371694, 41.690696)"><g><path d="M 2.21875 0.078125 C 1.84375 0.078125 1.515625 -0.00390625 1.234375 -0.171875 C 0.953125 -0.335938 0.738281 -0.570312 0.59375 -0.875 C 0.445312 -1.1875 0.375 -1.546875 0.375 -1.953125 C 0.375 -2.359375 0.445312 -2.71875 0.59375 -3.03125 C 0.738281 -3.34375 0.945312 -3.582031 1.21875 -3.75 C 1.488281 -3.925781 1.800781 -4.015625 2.15625 -4.015625 C 2.363281 -4.015625 2.566406 -3.976562 2.765625 -3.90625 C 2.972656 -3.84375 3.160156 -3.734375 3.328125 -3.578125 C 3.492188 -3.429688 3.625 -3.226562 3.71875 -2.96875 C 3.820312 -2.71875 3.875 -2.40625 3.875 -2.03125 L 3.875 -1.78125 L 0.984375 -1.78125 C 0.992188 -1.351562 1.113281 -1.023438 1.34375 -0.796875 C 1.570312 -0.578125 1.863281 -0.46875 2.21875 -0.46875 C 2.457031 -0.46875 2.660156 -0.519531 2.828125 -0.625 C 3.003906 -0.726562 3.132812 -0.882812 3.21875 -1.09375 L 3.8125 -0.921875 C 3.71875 -0.617188 3.53125 -0.375 3.25 -0.1875 C 2.96875 -0.0078125 2.625 0.078125 2.21875 0.078125 Z M 0.984375 -2.3125 L 3.25 -2.3125 C 3.25 -2.644531 3.148438 -2.921875 2.953125 -3.140625 C 2.753906 -3.359375 2.488281 -3.46875 2.15625 -3.46875 C 1.925781 -3.46875 1.722656 -3.414062 1.546875 -3.3125 C 1.378906 -3.207031 1.242188 -3.0625 1.140625 -2.875 C 1.046875 -2.695312 0.992188 -2.507812 0.984375 -2.3125 Z M 0.984375 -2.3125 "/></g></g></g><g fill="#ffffff" fill-opacity="1"><g transform="translate(96.609254, 41.690696)"><g><path d="M 1.171875 -2.390625 L 1.171875 0 L 0.5625 0 L 0.5625 -3.96875 L 1.140625 -3.96875 L 1.140625 -3.34375 L 1.203125 -3.34375 C 1.296875 -3.550781 1.4375 -3.710938 1.625 -3.828125 C 1.8125 -3.953125 2.054688 -4.015625 2.359375 -4.015625 C 2.753906 -4.015625 3.078125 -3.890625 3.328125 -3.640625 C 3.578125 -3.398438 3.703125 -3.03125 3.703125 -2.53125 L 3.703125 0 L 3.09375 0 L 3.09375 -2.484375 C 3.09375 -2.796875 3.007812 -3.035156 2.84375 -3.203125 C 2.6875 -3.378906 2.46875 -3.46875 2.1875 -3.46875 C 1.894531 -3.46875 1.648438 -3.375 1.453125 -3.1875 C 1.265625 -3 1.171875 -2.734375 1.171875 -2.390625 Z M 1.171875 -2.390625 "/></g></g></g><g fill="#ffffff" fill-opacity="1"><g transform="translate(100.86748, 41.690696)"><g><path d="M 2.28125 -3.96875 L 2.28125 -3.453125 L 1.4375 -3.453125 L 1.4375 -1.140625 C 1.4375 -0.960938 1.460938 -0.832031 1.515625 -0.75 C 1.566406 -0.664062 1.628906 -0.609375 1.703125 -0.578125 C 1.785156 -0.546875 1.875 -0.53125 1.96875 -0.53125 C 2.03125 -0.53125 2.082031 -0.535156 2.125 -0.546875 C 2.164062 -0.554688 2.203125 -0.5625 2.234375 -0.5625 L 2.359375 -0.015625 C 2.316406 -0.00390625 2.257812 0.00390625 2.1875 0.015625 C 2.113281 0.0351562 2.019531 0.046875 1.90625 0.046875 C 1.726562 0.046875 1.554688 0.0078125 1.390625 -0.0625 C 1.234375 -0.132812 1.097656 -0.242188 0.984375 -0.390625 C 0.878906 -0.546875 0.828125 -0.738281 0.828125 -0.96875 L 0.828125 -3.453125 L 0.234375 -3.453125 L 0.234375 -3.96875 L 0.828125 -3.96875 L 0.828125 -4.921875 L 1.4375 -4.921875 L 1.4375 -3.96875 Z M 2.28125 -3.96875 "/></g></g></g><g fill="#ffffff" fill-opacity="1"><g transform="translate(103.513368, 41.690696)"><g><path d="M 2.171875 0.078125 C 1.816406 0.078125 1.503906 -0.00390625 1.234375 -0.171875 C 0.960938 -0.335938 0.75 -0.570312 0.59375 -0.875 C 0.445312 -1.1875 0.375 -1.550781 0.375 -1.96875 C 0.375 -2.375 0.445312 -2.734375 0.59375 -3.046875 C 0.75 -3.359375 0.960938 -3.597656 1.234375 -3.765625 C 1.503906 -3.929688 1.816406 -4.015625 2.171875 -4.015625 C 2.523438 -4.015625 2.835938 -3.929688 3.109375 -3.765625 C 3.378906 -3.597656 3.585938 -3.359375 3.734375 -3.046875 C 3.890625 -2.734375 3.96875 -2.375 3.96875 -1.96875 C 3.96875 -1.550781 3.890625 -1.1875 3.734375 -0.875 C 3.585938 -0.570312 3.378906 -0.335938 3.109375 -0.171875 C 2.835938 -0.00390625 2.523438 0.078125 2.171875 0.078125 Z M 2.171875 -0.46875 C 2.441406 -0.46875 2.664062 -0.535156 2.84375 -0.671875 C 3.019531 -0.816406 3.148438 -1 3.234375 -1.21875 C 3.316406 -1.445312 3.359375 -1.695312 3.359375 -1.96875 C 3.359375 -2.226562 3.316406 -2.472656 3.234375 -2.703125 C 3.148438 -2.929688 3.019531 -3.113281 2.84375 -3.25 C 2.664062 -3.394531 2.441406 -3.46875 2.171875 -3.46875 C 1.898438 -3.46875 1.675781 -3.394531 1.5 -3.25 C 1.320312 -3.113281 1.191406 -2.929688 1.109375 -2.703125 C 1.023438 -2.472656 0.984375 -2.226562 0.984375 -1.96875 C 0.984375 -1.695312 1.023438 -1.445312 1.109375 -1.21875 C 1.191406 -1 1.320312 -0.816406 1.5 -0.671875 C 1.675781 -0.535156 1.898438 -0.46875 2.171875 -0.46875 Z M 2.171875 -0.46875 "/></g></g></g><g fill="#ffffff" fill-opacity="1"><g transform="translate(107.854281, 41.690696)"><g><path d="M 0.5625 0 L 0.5625 -3.96875 L 1.140625 -3.96875 L 1.140625 -3.375 L 1.1875 -3.375 C 1.257812 -3.570312 1.390625 -3.726562 1.578125 -3.84375 C 1.765625 -3.96875 1.976562 -4.03125 2.21875 -4.03125 C 2.332031 -4.03125 2.429688 -4.015625 2.515625 -3.984375 C 2.597656 -3.960938 2.671875 -3.929688 2.734375 -3.890625 L 2.53125 -3.375 C 2.476562 -3.394531 2.421875 -3.410156 2.359375 -3.421875 C 2.304688 -3.429688 2.242188 -3.4375 2.171875 -3.4375 C 1.878906 -3.4375 1.640625 -3.347656 1.453125 -3.171875 C 1.265625 -2.992188 1.171875 -2.773438 1.171875 -2.515625 L 1.171875 0 Z M 0.5625 0 "/></g></g></g><g fill="#ffffff" fill-opacity="1"><g transform="translate(110.644866, 41.690696)"><g><path d="M 0.9375 1.546875 C 0.832031 1.546875 0.738281 1.535156 0.65625 1.515625 C 0.570312 1.492188 0.515625 1.476562 0.484375 1.46875 L 0.640625 0.9375 C 0.859375 0.988281 1.039062 0.984375 1.1875 0.921875 C 1.34375 0.867188 1.472656 0.691406 1.578125 0.390625 L 1.71875 0.015625 L 0.25 -3.96875 L 0.90625 -3.96875 L 2 -0.8125 L 2.046875 -0.8125 L 3.140625 -3.96875 L 3.8125 -3.96875 L 2.09375 0.640625 C 1.875 1.242188 1.488281 1.546875 0.9375 1.546875 Z M 0.9375 1.546875 "/></g></g></g><g fill="#ffffff" fill-opacity="1"><g transform="translate(114.696386, 41.690696)"><g/></g></g><g fill="#ffffff" fill-opacity="1"><g transform="translate(116.742812, 41.690696)"><g><path d="M 0.640625 -5.296875 L 1.40625 -5.296875 L 3.203125 -0.90625 L 3.265625 -0.90625 L 5.0625 -5.296875 L 5.828125 -5.296875 L 5.828125 0 L 5.234375 0 L 5.234375 -4.015625 L 5.1875 -4.015625 L 3.53125 0 L 2.953125 0 L 1.296875 -4.015625 L 1.234375 -4.015625 L 1.234375 0 L 0.640625 0 Z M 0.640625 -5.296875 "/></g></g></g><g fill="#ffffff" fill-opacity="1"><g transform="translate(123.378211, 41.690696)"><g><path d="M 1.734375 0.09375 C 1.472656 0.09375 1.238281 0.046875 1.03125 -0.046875 C 0.832031 -0.140625 0.671875 -0.273438 0.546875 -0.453125 C 0.429688 -0.640625 0.375 -0.863281 0.375 -1.125 C 0.375 -1.351562 0.414062 -1.535156 0.5 -1.671875 C 0.59375 -1.816406 0.710938 -1.929688 0.859375 -2.015625 C 1.015625 -2.097656 1.179688 -2.160156 1.359375 -2.203125 C 1.546875 -2.242188 1.726562 -2.273438 1.90625 -2.296875 C 2.15625 -2.328125 2.351562 -2.347656 2.5 -2.359375 C 2.65625 -2.378906 2.765625 -2.410156 2.828125 -2.453125 C 2.898438 -2.492188 2.9375 -2.5625 2.9375 -2.65625 L 2.9375 -2.671875 C 2.9375 -2.929688 2.863281 -3.128906 2.71875 -3.265625 C 2.582031 -3.410156 2.375 -3.484375 2.09375 -3.484375 C 1.800781 -3.484375 1.570312 -3.421875 1.40625 -3.296875 C 1.25 -3.171875 1.132812 -3.035156 1.0625 -2.890625 L 0.484375 -3.09375 C 0.585938 -3.332031 0.722656 -3.519531 0.890625 -3.65625 C 1.066406 -3.789062 1.257812 -3.882812 1.46875 -3.9375 C 1.675781 -3.988281 1.878906 -4.015625 2.078125 -4.015625 C 2.203125 -4.015625 2.347656 -4 2.515625 -3.96875 C 2.679688 -3.945312 2.84375 -3.890625 3 -3.796875 C 3.15625 -3.703125 3.285156 -3.5625 3.390625 -3.375 C 3.492188 -3.1875 3.546875 -2.929688 3.546875 -2.609375 L 3.546875 0 L 2.9375 0 L 2.9375 -0.53125 L 2.90625 -0.53125 C 2.863281 -0.445312 2.789062 -0.351562 2.6875 -0.25 C 2.59375 -0.15625 2.46875 -0.0703125 2.3125 0 C 2.15625 0.0625 1.960938 0.09375 1.734375 0.09375 Z M 1.8125 -0.453125 C 2.0625 -0.453125 2.269531 -0.5 2.4375 -0.59375 C 2.601562 -0.6875 2.726562 -0.804688 2.8125 -0.953125 C 2.894531 -1.109375 2.9375 -1.269531 2.9375 -1.4375 L 2.9375 -2 C 2.914062 -1.96875 2.859375 -1.9375 2.765625 -1.90625 C 2.679688 -1.882812 2.582031 -1.863281 2.46875 -1.84375 C 2.351562 -1.820312 2.242188 -1.804688 2.140625 -1.796875 C 2.035156 -1.785156 1.945312 -1.773438 1.875 -1.765625 C 1.71875 -1.742188 1.570312 -1.707031 1.4375 -1.65625 C 1.300781 -1.613281 1.191406 -1.546875 1.109375 -1.453125 C 1.023438 -1.367188 0.984375 -1.25 0.984375 -1.09375 C 0.984375 -0.882812 1.0625 -0.722656 1.21875 -0.609375 C 1.375 -0.503906 1.570312 -0.453125 1.8125 -0.453125 Z M 1.8125 -0.453125 "/></g></g></g><g fill="#ffffff" fill-opacity="1"><g transform="translate(127.481413, 41.690696)"><g><path d="M 1.171875 -2.390625 L 1.171875 0 L 0.5625 0 L 0.5625 -3.96875 L 1.140625 -3.96875 L 1.140625 -3.34375 L 1.203125 -3.34375 C 1.296875 -3.550781 1.4375 -3.710938 1.625 -3.828125 C 1.8125 -3.953125 2.054688 -4.015625 2.359375 -4.015625 C 2.753906 -4.015625 3.078125 -3.890625 3.328125 -3.640625 C 3.578125 -3.398438 3.703125 -3.03125 3.703125 -2.53125 L 3.703125 0 L 3.09375 0 L 3.09375 -2.484375 C 3.09375 -2.796875 3.007812 -3.035156 2.84375 -3.203125 C 2.6875 -3.378906 2.46875 -3.46875 2.1875 -3.46875 C 1.894531 -3.46875 1.648438 -3.375 1.453125 -3.1875 C 1.265625 -3 1.171875 -2.734375 1.171875 -2.390625 Z M 1.171875 -2.390625 "/></g></g></g><g fill="#ffffff" fill-opacity="1"><g transform="translate(131.739639, 41.690696)"><g><path d="M 1.734375 0.09375 C 1.472656 0.09375 1.238281 0.046875 1.03125 -0.046875 C 0.832031 -0.140625 0.671875 -0.273438 0.546875 -0.453125 C 0.429688 -0.640625 0.375 -0.863281 0.375 -1.125 C 0.375 -1.351562 0.414062 -1.535156 0.5 -1.671875 C 0.59375 -1.816406 0.710938 -1.929688 0.859375 -2.015625 C 1.015625 -2.097656 1.179688 -2.160156 1.359375 -2.203125 C 1.546875 -2.242188 1.726562 -2.273438 1.90625 -2.296875 C 2.15625 -2.328125 2.351562 -2.347656 2.5 -2.359375 C 2.65625 -2.378906 2.765625 -2.410156 2.828125 -2.453125 C 2.898438 -2.492188 2.9375 -2.5625 2.9375 -2.65625 L 2.9375 -2.671875 C 2.9375 -2.929688 2.863281 -3.128906 2.71875 -3.265625 C 2.582031 -3.410156 2.375 -3.484375 2.09375 -3.484375 C 1.800781 -3.484375 1.570312 -3.421875 1.40625 -3.296875 C 1.25 -3.171875 1.132812 -3.035156 1.0625 -2.890625 L 0.484375 -3.09375 C 0.585938 -3.332031 0.722656 -3.519531 0.890625 -3.65625 C 1.066406 -3.789062 1.257812 -3.882812 1.46875 -3.9375 C 1.675781 -3.988281 1.878906 -4.015625 2.078125 -4.015625 C 2.203125 -4.015625 2.347656 -4 2.515625 -3.96875 C 2.679688 -3.945312 2.84375 -3.890625 3 -3.796875 C 3.15625 -3.703125 3.285156 -3.5625 3.390625 -3.375 C 3.492188 -3.1875 3.546875 -2.929688 3.546875 -2.609375 L 3.546875 0 L 2.9375 0 L 2.9375 -0.53125 L 2.90625 -0.53125 C 2.863281 -0.445312 2.789062 -0.351562 2.6875 -0.25 C 2.59375 -0.15625 2.46875 -0.0703125 2.3125 0 C 2.15625 0.0625 1.960938 0.09375 1.734375 0.09375 Z M 1.8125 -0.453125 C 2.0625 -0.453125 2.269531 -0.5 2.4375 -0.59375 C 2.601562 -0.6875 2.726562 -0.804688 2.8125 -0.953125 C 2.894531 -1.109375 2.9375 -1.269531 2.9375 -1.4375 L 2.9375 -2 C 2.914062 -1.96875 2.859375 -1.9375 2.765625 -1.90625 C 2.679688 -1.882812 2.582031 -1.863281 2.46875 -1.84375 C 2.351562 -1.820312 2.242188 -1.804688 2.140625 -1.796875 C 2.035156 -1.785156 1.945312 -1.773438 1.875 -1.765625 C 1.71875 -1.742188 1.570312 -1.707031 1.4375 -1.65625 C 1.300781 -1.613281 1.191406 -1.546875 1.109375 -1.453125 C 1.023438 -1.367188 0.984375 -1.25 0.984375 -1.09375 C 0.984375 -0.882812 1.0625 -0.722656 1.21875 -0.609375 C 1.375 -0.503906 1.570312 -0.453125 1.8125 -0.453125 Z M 1.8125 -0.453125 "/></g></g></g><g fill="#ffffff" fill-opacity="1"><g transform="translate(135.84284, 41.690696)"><g><path d="M 2.15625 1.578125 C 1.71875 1.578125 1.367188 1.492188 1.109375 1.328125 C 0.847656 1.171875 0.65625 0.988281 0.53125 0.78125 L 1.03125 0.4375 C 1.082031 0.507812 1.148438 0.59375 1.234375 0.6875 C 1.316406 0.78125 1.429688 0.859375 1.578125 0.921875 C 1.722656 0.992188 1.914062 1.03125 2.15625 1.03125 C 2.476562 1.03125 2.742188 0.953125 2.953125 0.796875 C 3.160156 0.640625 3.265625 0.398438 3.265625 0.078125 L 3.265625 -0.734375 L 3.21875 -0.734375 C 3.175781 -0.660156 3.113281 -0.570312 3.03125 -0.46875 C 2.945312 -0.363281 2.828125 -0.269531 2.671875 -0.1875 C 2.523438 -0.101562 2.320312 -0.0625 2.0625 -0.0625 C 1.738281 -0.0625 1.445312 -0.132812 1.1875 -0.28125 C 0.9375 -0.4375 0.738281 -0.660156 0.59375 -0.953125 C 0.445312 -1.242188 0.375 -1.59375 0.375 -2 C 0.375 -2.40625 0.441406 -2.757812 0.578125 -3.0625 C 0.722656 -3.375 0.921875 -3.609375 1.171875 -3.765625 C 1.429688 -3.929688 1.726562 -4.015625 2.0625 -4.015625 C 2.320312 -4.015625 2.523438 -3.972656 2.671875 -3.890625 C 2.828125 -3.804688 2.945312 -3.707031 3.03125 -3.59375 C 3.113281 -3.488281 3.179688 -3.40625 3.234375 -3.34375 L 3.28125 -3.34375 L 3.28125 -3.96875 L 3.875 -3.96875 L 3.875 0.109375 C 3.875 0.453125 3.796875 0.726562 3.640625 0.9375 C 3.492188 1.15625 3.289062 1.316406 3.03125 1.421875 C 2.769531 1.523438 2.476562 1.578125 2.15625 1.578125 Z M 2.140625 -0.609375 C 2.503906 -0.609375 2.785156 -0.734375 2.984375 -0.984375 C 3.179688 -1.234375 3.28125 -1.578125 3.28125 -2.015625 C 3.28125 -2.441406 3.179688 -2.789062 2.984375 -3.0625 C 2.796875 -3.332031 2.515625 -3.46875 2.140625 -3.46875 C 1.878906 -3.46875 1.660156 -3.398438 1.484375 -3.265625 C 1.316406 -3.140625 1.191406 -2.96875 1.109375 -2.75 C 1.023438 -2.53125 0.984375 -2.285156 0.984375 -2.015625 C 0.984375 -1.597656 1.078125 -1.257812 1.265625 -1 C 1.460938 -0.738281 1.753906 -0.609375 2.140625 -0.609375 Z M 2.140625 -0.609375 "/></g></g></g><g fill="#ffffff" fill-opacity="1"><g transform="translate(140.276768, 41.690696)"><g><path d="M 2.21875 0.078125 C 1.84375 0.078125 1.515625 -0.00390625 1.234375 -0.171875 C 0.953125 -0.335938 0.738281 -0.570312 0.59375 -0.875 C 0.445312 -1.1875 0.375 -1.546875 0.375 -1.953125 C 0.375 -2.359375 0.445312 -2.71875 0.59375 -3.03125 C 0.738281 -3.34375 0.945312 -3.582031 1.21875 -3.75 C 1.488281 -3.925781 1.800781 -4.015625 2.15625 -4.015625 C 2.363281 -4.015625 2.566406 -3.976562 2.765625 -3.90625 C 2.972656 -3.84375 3.160156 -3.734375 3.328125 -3.578125 C 3.492188 -3.429688 3.625 -3.226562 3.71875 -2.96875 C 3.820312 -2.71875 3.875 -2.40625 3.875 -2.03125 L 3.875 -1.78125 L 0.984375 -1.78125 C 0.992188 -1.351562 1.113281 -1.023438 1.34375 -0.796875 C 1.570312 -0.578125 1.863281 -0.46875 2.21875 -0.46875 C 2.457031 -0.46875 2.660156 -0.519531 2.828125 -0.625 C 3.003906 -0.726562 3.132812 -0.882812 3.21875 -1.09375 L 3.8125 -0.921875 C 3.71875 -0.617188 3.53125 -0.375 3.25 -0.1875 C 2.96875 -0.0078125 2.625 0.078125 2.21875 0.078125 Z M 0.984375 -2.3125 L 3.25 -2.3125 C 3.25 -2.644531 3.148438 -2.921875 2.953125 -3.140625 C 2.753906 -3.359375 2.488281 -3.46875 2.15625 -3.46875 C 1.925781 -3.46875 1.722656 -3.414062 1.546875 -3.3125 C 1.378906 -3.207031 1.242188 -3.0625 1.140625 -2.875 C 1.046875 -2.695312 0.992188 -2.507812 0.984375 -2.3125 Z M 0.984375 -2.3125 "/></g></g></g><g fill="#ffffff" fill-opacity="1"><g transform="translate(144.514317, 41.690696)"><g><path d="M 0.5625 0 L 0.5625 -3.96875 L 1.140625 -3.96875 L 1.140625 -3.375 L 1.1875 -3.375 C 1.257812 -3.570312 1.390625 -3.726562 1.578125 -3.84375 C 1.765625 -3.96875 1.976562 -4.03125 2.21875 -4.03125 C 2.332031 -4.03125 2.429688 -4.015625 2.515625 -3.984375 C 2.597656 -3.960938 2.671875 -3.929688 2.734375 -3.890625 L 2.53125 -3.375 C 2.476562 -3.394531 2.421875 -3.410156 2.359375 -3.421875 C 2.304688 -3.429688 2.242188 -3.4375 2.171875 -3.4375 C 1.878906 -3.4375 1.640625 -3.347656 1.453125 -3.171875 C 1.265625 -2.992188 1.171875 -2.773438 1.171875 -2.515625 L 1.171875 0 Z M 0.5625 0 "/></g></g></g></svg>